<mxfile host="Electron" modified="2023-12-14T12:36:46.757Z" agent="Mozilla/5.0 (Macintosh; Intel Mac OS X 10_15_7) AppleWebKit/537.36 (KHTML, like Gecko) draw.io/22.1.2 Chrome/114.0.5735.289 Electron/25.9.4 Safari/537.36" etag="z4U-zDq0jtBMo4i_7tlu" version="22.1.2" type="device">
  <diagram name="Page-1" id="QE8vZVnPBZV8oYVL76SA">
    <mxGraphModel dx="1562" dy="975" grid="1" gridSize="10" guides="1" tooltips="1" connect="1" arrows="1" fold="1" page="1" pageScale="1" pageWidth="850" pageHeight="1100" math="0" shadow="0">
      <root>
        <mxCell id="0" />
        <mxCell id="1" parent="0" />
        <mxCell id="vFeUDvUmldkNWTVdKpO3-1" value="Web Code Diagram" style="rounded=0;whiteSpace=wrap;html=1;" parent="1" vertex="1">
          <mxGeometry width="850" height="40" as="geometry" />
        </mxCell>
        <mxCell id="vFeUDvUmldkNWTVdKpO3-3" value="Run" style="rounded=0;whiteSpace=wrap;html=1;" parent="1" vertex="1">
          <mxGeometry x="570" y="80" width="120" height="40" as="geometry" />
        </mxCell>
        <mxCell id="vFeUDvUmldkNWTVdKpO3-5" value="App.py" style="swimlane;whiteSpace=wrap;html=1;startSize=23;" parent="1" vertex="1">
          <mxGeometry x="50" y="170" width="240" height="730" as="geometry" />
        </mxCell>
        <mxCell id="vFeUDvUmldkNWTVdKpO3-9" value="" style="rounded=0;whiteSpace=wrap;html=1;" parent="vFeUDvUmldkNWTVdKpO3-5" vertex="1">
          <mxGeometry x="10" y="30" width="120" height="60" as="geometry" />
        </mxCell>
        <mxCell id="vFeUDvUmldkNWTVdKpO3-6" value="log_manager.py" style="swimlane;whiteSpace=wrap;html=1;startSize=23;" parent="1" vertex="1">
          <mxGeometry x="2130" y="150" width="720" height="585" as="geometry" />
        </mxCell>
        <mxCell id="vFeUDvUmldkNWTVdKpO3-115" value="Startup" style="swimlane;whiteSpace=wrap;html=1;" parent="vFeUDvUmldkNWTVdKpO3-6" vertex="1">
          <mxGeometry x="270" y="50" width="180" height="150" as="geometry" />
        </mxCell>
        <mxCell id="vFeUDvUmldkNWTVdKpO3-117" value="logging" style="shape=process;whiteSpace=wrap;html=1;backgroundOutline=1;" parent="vFeUDvUmldkNWTVdKpO3-115" vertex="1">
          <mxGeometry x="30" y="40" width="120" height="30" as="geometry" />
        </mxCell>
        <mxCell id="vFeUDvUmldkNWTVdKpO3-120" value="init_logging()" style="rounded=0;whiteSpace=wrap;html=1;" parent="vFeUDvUmldkNWTVdKpO3-115" vertex="1">
          <mxGeometry x="30" y="90" width="120" height="40" as="geometry" />
        </mxCell>
        <mxCell id="vFeUDvUmldkNWTVdKpO3-121" value="Init_logging" style="swimlane;whiteSpace=wrap;html=1;" parent="vFeUDvUmldkNWTVdKpO3-6" vertex="1">
          <mxGeometry x="100" y="230" width="235" height="340" as="geometry" />
        </mxCell>
        <mxCell id="vFeUDvUmldkNWTVdKpO3-127" style="edgeStyle=orthogonalEdgeStyle;rounded=0;orthogonalLoop=1;jettySize=auto;html=1;exitX=0.5;exitY=1;exitDx=0;exitDy=0;entryX=0.5;entryY=0;entryDx=0;entryDy=0;" parent="vFeUDvUmldkNWTVdKpO3-121" source="vFeUDvUmldkNWTVdKpO3-124" target="vFeUDvUmldkNWTVdKpO3-125" edge="1">
          <mxGeometry relative="1" as="geometry" />
        </mxCell>
        <mxCell id="vFeUDvUmldkNWTVdKpO3-124" value="Calling logging module" style="rounded=1;whiteSpace=wrap;html=1;" parent="vFeUDvUmldkNWTVdKpO3-121" vertex="1">
          <mxGeometry x="40" y="40" width="155" height="50" as="geometry" />
        </mxCell>
        <mxCell id="vFeUDvUmldkNWTVdKpO3-128" style="edgeStyle=orthogonalEdgeStyle;rounded=0;orthogonalLoop=1;jettySize=auto;html=1;exitX=0.5;exitY=1;exitDx=0;exitDy=0;entryX=0.5;entryY=0;entryDx=0;entryDy=0;" parent="vFeUDvUmldkNWTVdKpO3-121" source="vFeUDvUmldkNWTVdKpO3-125" target="vFeUDvUmldkNWTVdKpO3-126" edge="1">
          <mxGeometry relative="1" as="geometry" />
        </mxCell>
        <mxCell id="vFeUDvUmldkNWTVdKpO3-125" value="Sets HANDLER, FORMATTER and LEVEL for debug, info, warning and error categories" style="rounded=1;whiteSpace=wrap;html=1;" parent="vFeUDvUmldkNWTVdKpO3-121" vertex="1">
          <mxGeometry x="30" y="120" width="175" height="100" as="geometry" />
        </mxCell>
        <mxCell id="vFeUDvUmldkNWTVdKpO3-126" value="Sets formatter as ACT-&amp;gt;System level-&amp;gt;Log name-&amp;gt;msg" style="rounded=1;whiteSpace=wrap;html=1;" parent="vFeUDvUmldkNWTVdKpO3-121" vertex="1">
          <mxGeometry x="30" y="250" width="175" height="60" as="geometry" />
        </mxCell>
        <mxCell id="vFeUDvUmldkNWTVdKpO3-129" value="log_func(e, msg, type)" style="swimlane;whiteSpace=wrap;html=1;" parent="vFeUDvUmldkNWTVdKpO3-6" vertex="1">
          <mxGeometry x="365" y="230" width="290" height="260" as="geometry" />
        </mxCell>
        <mxCell id="vFeUDvUmldkNWTVdKpO3-136" value="Appends the message to the level of log and writes it" style="rounded=1;whiteSpace=wrap;html=1;" parent="vFeUDvUmldkNWTVdKpO3-129" vertex="1">
          <mxGeometry x="47.5" y="160" width="195" height="60" as="geometry" />
        </mxCell>
        <mxCell id="vFeUDvUmldkNWTVdKpO3-137" value="e = exception&lt;br&gt;msg = message&lt;br&gt;type = log level" style="whiteSpace=wrap;html=1;aspect=fixed;" parent="vFeUDvUmldkNWTVdKpO3-129" vertex="1">
          <mxGeometry x="94" y="40" width="102" height="102" as="geometry" />
        </mxCell>
        <mxCell id="vFeUDvUmldkNWTVdKpO3-12" value="login_manager.py" style="swimlane;whiteSpace=wrap;html=1;startSize=23;" parent="1" vertex="1">
          <mxGeometry x="450" y="240" width="960" height="540" as="geometry" />
        </mxCell>
        <mxCell id="vFeUDvUmldkNWTVdKpO3-92" value="Check_for_regex(text)" style="swimlane;whiteSpace=wrap;html=1;" parent="vFeUDvUmldkNWTVdKpO3-12" vertex="1">
          <mxGeometry x="290" y="150" width="250" height="190" as="geometry" />
        </mxCell>
        <mxCell id="vFeUDvUmldkNWTVdKpO3-104" style="edgeStyle=orthogonalEdgeStyle;rounded=0;orthogonalLoop=1;jettySize=auto;html=1;exitX=0.5;exitY=1;exitDx=0;exitDy=0;entryX=0.5;entryY=0;entryDx=0;entryDy=0;" parent="vFeUDvUmldkNWTVdKpO3-92" source="vFeUDvUmldkNWTVdKpO3-80" target="vFeUDvUmldkNWTVdKpO3-103" edge="1">
          <mxGeometry relative="1" as="geometry" />
        </mxCell>
        <mxCell id="vFeUDvUmldkNWTVdKpO3-80" value="Does text have only these characters?:&amp;nbsp; ^[A-Za-z0-9_-]+$" style="rounded=1;whiteSpace=wrap;html=1;" parent="vFeUDvUmldkNWTVdKpO3-92" vertex="1">
          <mxGeometry x="45" y="40" width="160" height="60" as="geometry" />
        </mxCell>
        <mxCell id="vFeUDvUmldkNWTVdKpO3-91" style="edgeStyle=orthogonalEdgeStyle;rounded=0;orthogonalLoop=1;jettySize=auto;html=1;exitX=0.5;exitY=1;exitDx=0;exitDy=0;" parent="vFeUDvUmldkNWTVdKpO3-92" edge="1">
          <mxGeometry relative="1" as="geometry">
            <mxPoint x="82.5" y="160" as="sourcePoint" />
            <mxPoint x="82.5" y="160" as="targetPoint" />
          </mxGeometry>
        </mxCell>
        <mxCell id="vFeUDvUmldkNWTVdKpO3-103" value="Returns True/False" style="rounded=1;whiteSpace=wrap;html=1;" parent="vFeUDvUmldkNWTVdKpO3-92" vertex="1">
          <mxGeometry x="45" y="120" width="160" height="40" as="geometry" />
        </mxCell>
        <mxCell id="vFeUDvUmldkNWTVdKpO3-97" value="Startup" style="swimlane;whiteSpace=wrap;html=1;" parent="vFeUDvUmldkNWTVdKpO3-12" vertex="1">
          <mxGeometry x="230" y="40" width="500" height="90" as="geometry" />
        </mxCell>
        <mxCell id="vFeUDvUmldkNWTVdKpO3-28" value="bcrypt" style="shape=process;whiteSpace=wrap;html=1;backgroundOutline=1;" parent="vFeUDvUmldkNWTVdKpO3-97" vertex="1">
          <mxGeometry x="20" y="40" width="120" height="30" as="geometry" />
        </mxCell>
        <mxCell id="vFeUDvUmldkNWTVdKpO3-27" value="Logger" style="shape=process;whiteSpace=wrap;html=1;backgroundOutline=1;" parent="vFeUDvUmldkNWTVdKpO3-97" vertex="1">
          <mxGeometry x="190" y="40" width="120" height="30" as="geometry" />
        </mxCell>
        <mxCell id="vFeUDvUmldkNWTVdKpO3-98" value="hash_password(password)" style="swimlane;whiteSpace=wrap;html=1;" parent="vFeUDvUmldkNWTVdKpO3-12" vertex="1">
          <mxGeometry x="550" y="150" width="350" height="110" as="geometry" />
        </mxCell>
        <mxCell id="vFeUDvUmldkNWTVdKpO3-72" value="Uses bcrypt module to hash password or text" style="rounded=1;whiteSpace=wrap;html=1;" parent="vFeUDvUmldkNWTVdKpO3-98" vertex="1">
          <mxGeometry x="35" y="50" width="280" height="30" as="geometry" />
        </mxCell>
        <mxCell id="vFeUDvUmldkNWTVdKpO3-105" value="send_mail(recipient, username)" style="swimlane;whiteSpace=wrap;html=1;" parent="vFeUDvUmldkNWTVdKpO3-12" vertex="1">
          <mxGeometry x="25" y="150" width="250" height="280" as="geometry" />
        </mxCell>
        <mxCell id="vFeUDvUmldkNWTVdKpO3-106" style="edgeStyle=orthogonalEdgeStyle;rounded=0;orthogonalLoop=1;jettySize=auto;html=1;exitX=0.5;exitY=1;exitDx=0;exitDy=0;entryX=0.5;entryY=0;entryDx=0;entryDy=0;" parent="vFeUDvUmldkNWTVdKpO3-105" source="vFeUDvUmldkNWTVdKpO3-107" target="vFeUDvUmldkNWTVdKpO3-109" edge="1">
          <mxGeometry relative="1" as="geometry" />
        </mxCell>
        <mxCell id="vFeUDvUmldkNWTVdKpO3-107" value="Creates OTP key with rand_otp()" style="rounded=1;whiteSpace=wrap;html=1;" parent="vFeUDvUmldkNWTVdKpO3-105" vertex="1">
          <mxGeometry x="45" y="40" width="160" height="60" as="geometry" />
        </mxCell>
        <mxCell id="vFeUDvUmldkNWTVdKpO3-108" style="edgeStyle=orthogonalEdgeStyle;rounded=0;orthogonalLoop=1;jettySize=auto;html=1;exitX=0.5;exitY=1;exitDx=0;exitDy=0;" parent="vFeUDvUmldkNWTVdKpO3-105" edge="1">
          <mxGeometry relative="1" as="geometry">
            <mxPoint x="82.5" y="160" as="sourcePoint" />
            <mxPoint x="82.5" y="160" as="targetPoint" />
          </mxGeometry>
        </mxCell>
        <mxCell id="vFeUDvUmldkNWTVdKpO3-109" value="Sends email to recipient using SMTP" style="rounded=1;whiteSpace=wrap;html=1;" parent="vFeUDvUmldkNWTVdKpO3-105" vertex="1">
          <mxGeometry x="45" y="120" width="160" height="40" as="geometry" />
        </mxCell>
        <mxCell id="vFeUDvUmldkNWTVdKpO3-110" value="Saves OTP key in DB using save_otp()" style="rounded=1;whiteSpace=wrap;html=1;" parent="vFeUDvUmldkNWTVdKpO3-105" vertex="1">
          <mxGeometry x="45" y="190" width="160" height="40" as="geometry" />
        </mxCell>
        <mxCell id="vFeUDvUmldkNWTVdKpO3-111" value="rand_otp()" style="swimlane;whiteSpace=wrap;html=1;" parent="vFeUDvUmldkNWTVdKpO3-12" vertex="1">
          <mxGeometry x="550" y="270" width="350" height="110" as="geometry" />
        </mxCell>
        <mxCell id="vFeUDvUmldkNWTVdKpO3-112" value="Rolls random number between 100 &amp;amp; 999" style="rounded=1;whiteSpace=wrap;html=1;" parent="vFeUDvUmldkNWTVdKpO3-111" vertex="1">
          <mxGeometry x="35" y="50" width="280" height="30" as="geometry" />
        </mxCell>
        <mxCell id="vFeUDvUmldkNWTVdKpO3-113" value="decrypt_password(hashed_password, password)" style="swimlane;whiteSpace=wrap;html=1;" parent="vFeUDvUmldkNWTVdKpO3-12" vertex="1">
          <mxGeometry x="550" y="390" width="350" height="110" as="geometry" />
        </mxCell>
        <mxCell id="vFeUDvUmldkNWTVdKpO3-114" value="Checks input password and the hashed_password in the db, then compares them against a hash calculation" style="rounded=1;whiteSpace=wrap;html=1;" parent="vFeUDvUmldkNWTVdKpO3-113" vertex="1">
          <mxGeometry x="35" y="40" width="280" height="50" as="geometry" />
        </mxCell>
        <mxCell id="vFeUDvUmldkNWTVdKpO3-14" value="db_manager.py" style="swimlane;whiteSpace=wrap;html=1;startSize=23;" parent="1" vertex="1">
          <mxGeometry x="1530" y="720" width="1390" height="3020" as="geometry" />
        </mxCell>
        <mxCell id="vFeUDvUmldkNWTVdKpO3-68" style="edgeStyle=orthogonalEdgeStyle;rounded=0;orthogonalLoop=1;jettySize=auto;html=1;exitX=0.5;exitY=1;exitDx=0;exitDy=0;entryX=0.5;entryY=0;entryDx=0;entryDy=0;" parent="vFeUDvUmldkNWTVdKpO3-14" target="vFeUDvUmldkNWTVdKpO3-65" edge="1">
          <mxGeometry relative="1" as="geometry">
            <mxPoint x="95" y="320" as="sourcePoint" />
          </mxGeometry>
        </mxCell>
        <mxCell id="vFeUDvUmldkNWTVdKpO3-69" style="edgeStyle=orthogonalEdgeStyle;rounded=0;orthogonalLoop=1;jettySize=auto;html=1;exitX=0.5;exitY=1;exitDx=0;exitDy=0;entryX=0.5;entryY=0;entryDx=0;entryDy=0;" parent="vFeUDvUmldkNWTVdKpO3-14" target="vFeUDvUmldkNWTVdKpO3-66" edge="1">
          <mxGeometry relative="1" as="geometry">
            <mxPoint x="95" y="380" as="sourcePoint" />
          </mxGeometry>
        </mxCell>
        <mxCell id="vFeUDvUmldkNWTVdKpO3-70" style="edgeStyle=orthogonalEdgeStyle;rounded=0;orthogonalLoop=1;jettySize=auto;html=1;exitX=0.5;exitY=1;exitDx=0;exitDy=0;entryX=0.5;entryY=0;entryDx=0;entryDy=0;" parent="vFeUDvUmldkNWTVdKpO3-14" target="vFeUDvUmldkNWTVdKpO3-67" edge="1">
          <mxGeometry relative="1" as="geometry">
            <mxPoint x="95" y="450" as="sourcePoint" />
          </mxGeometry>
        </mxCell>
        <mxCell id="vFeUDvUmldkNWTVdKpO3-138" value="Startup" style="swimlane;whiteSpace=wrap;html=1;" parent="vFeUDvUmldkNWTVdKpO3-14" vertex="1">
          <mxGeometry x="522.5" y="50" width="345" height="90" as="geometry" />
        </mxCell>
        <mxCell id="vFeUDvUmldkNWTVdKpO3-139" value="web_db = Test.db" style="shape=process;whiteSpace=wrap;html=1;backgroundOutline=1;" parent="vFeUDvUmldkNWTVdKpO3-138" vertex="1">
          <mxGeometry x="20" y="40" width="120" height="30" as="geometry" />
        </mxCell>
        <mxCell id="vFeUDvUmldkNWTVdKpO3-140" value="Logger" style="shape=process;whiteSpace=wrap;html=1;backgroundOutline=1;" parent="vFeUDvUmldkNWTVdKpO3-138" vertex="1">
          <mxGeometry x="190" y="40" width="120" height="30" as="geometry" />
        </mxCell>
        <mxCell id="vFeUDvUmldkNWTVdKpO3-148" value="&lt;div style=&quot;color: rgb(212, 212, 212); background-color: rgb(30, 30, 30); font-family: Menlo, Monaco, &amp;quot;Courier New&amp;quot;, monospace; font-weight: normal; line-height: 18px;&quot;&gt;&lt;div style=&quot;line-height: 18px;&quot;&gt;create_db_login_table()&lt;/div&gt;&lt;/div&gt;" style="swimlane;whiteSpace=wrap;html=1;" parent="vFeUDvUmldkNWTVdKpO3-14" vertex="1">
          <mxGeometry x="960" y="160" width="205" height="430" as="geometry" />
        </mxCell>
        <mxCell id="vFeUDvUmldkNWTVdKpO3-207" style="edgeStyle=orthogonalEdgeStyle;rounded=0;orthogonalLoop=1;jettySize=auto;html=1;exitX=0.5;exitY=1;exitDx=0;exitDy=0;entryX=0.5;entryY=0;entryDx=0;entryDy=0;" parent="vFeUDvUmldkNWTVdKpO3-148" source="vFeUDvUmldkNWTVdKpO3-202" target="vFeUDvUmldkNWTVdKpO3-204" edge="1">
          <mxGeometry relative="1" as="geometry" />
        </mxCell>
        <mxCell id="vFeUDvUmldkNWTVdKpO3-202" value="Connects to DB" style="rounded=1;whiteSpace=wrap;html=1;" parent="vFeUDvUmldkNWTVdKpO3-148" vertex="1">
          <mxGeometry x="42.5" y="37.5" width="120" height="40" as="geometry" />
        </mxCell>
        <mxCell id="vFeUDvUmldkNWTVdKpO3-203" value="Closes connection" style="rounded=1;whiteSpace=wrap;html=1;" parent="vFeUDvUmldkNWTVdKpO3-148" vertex="1">
          <mxGeometry x="42.5" y="327.5" width="120" height="40" as="geometry" />
        </mxCell>
        <mxCell id="vFeUDvUmldkNWTVdKpO3-208" style="edgeStyle=orthogonalEdgeStyle;rounded=0;orthogonalLoop=1;jettySize=auto;html=1;exitX=0.5;exitY=1;exitDx=0;exitDy=0;entryX=0.5;entryY=0;entryDx=0;entryDy=0;" parent="vFeUDvUmldkNWTVdKpO3-148" source="vFeUDvUmldkNWTVdKpO3-204" target="vFeUDvUmldkNWTVdKpO3-205" edge="1">
          <mxGeometry relative="1" as="geometry" />
        </mxCell>
        <mxCell id="vFeUDvUmldkNWTVdKpO3-204" value="Creates table &quot;admins&quot; if not exists" style="rounded=1;whiteSpace=wrap;html=1;" parent="vFeUDvUmldkNWTVdKpO3-148" vertex="1">
          <mxGeometry x="42.5" y="102.5" width="120" height="40" as="geometry" />
        </mxCell>
        <mxCell id="vFeUDvUmldkNWTVdKpO3-209" style="edgeStyle=orthogonalEdgeStyle;rounded=0;orthogonalLoop=1;jettySize=auto;html=1;exitX=0.5;exitY=1;exitDx=0;exitDy=0;entryX=0.5;entryY=0;entryDx=0;entryDy=0;" parent="vFeUDvUmldkNWTVdKpO3-148" source="vFeUDvUmldkNWTVdKpO3-205" target="vFeUDvUmldkNWTVdKpO3-206" edge="1">
          <mxGeometry relative="1" as="geometry" />
        </mxCell>
        <mxCell id="vFeUDvUmldkNWTVdKpO3-205" value="users = &lt;br&gt;[id, &lt;br&gt;username, &lt;br&gt;password, &lt;br&gt;email]" style="whiteSpace=wrap;html=1;aspect=fixed;" parent="vFeUDvUmldkNWTVdKpO3-148" vertex="1">
          <mxGeometry x="60" y="157.5" width="85" height="85" as="geometry" />
        </mxCell>
        <mxCell id="vFeUDvUmldkNWTVdKpO3-210" style="edgeStyle=orthogonalEdgeStyle;rounded=0;orthogonalLoop=1;jettySize=auto;html=1;exitX=0.5;exitY=1;exitDx=0;exitDy=0;entryX=0.5;entryY=0;entryDx=0;entryDy=0;" parent="vFeUDvUmldkNWTVdKpO3-148" source="vFeUDvUmldkNWTVdKpO3-206" target="vFeUDvUmldkNWTVdKpO3-203" edge="1">
          <mxGeometry relative="1" as="geometry" />
        </mxCell>
        <mxCell id="vFeUDvUmldkNWTVdKpO3-206" value="Commits changes" style="rounded=1;whiteSpace=wrap;html=1;" parent="vFeUDvUmldkNWTVdKpO3-148" vertex="1">
          <mxGeometry x="42.5" y="267.5" width="120" height="40" as="geometry" />
        </mxCell>
        <mxCell id="vFeUDvUmldkNWTVdKpO3-150" value="&lt;div style=&quot;color: rgb(212, 212, 212); background-color: rgb(30, 30, 30); font-family: Menlo, Monaco, &amp;quot;Courier New&amp;quot;, monospace; font-weight: normal; line-height: 18px;&quot;&gt;add_admin(&lt;span style=&quot;color: #9cdcfe;&quot;&gt;username&lt;/span&gt;, &lt;span style=&quot;color: #9cdcfe;&quot;&gt;password&lt;/span&gt;, &lt;span style=&quot;color: #9cdcfe;&quot;&gt;email&lt;/span&gt;)&lt;/div&gt;" style="swimlane;whiteSpace=wrap;html=1;" parent="vFeUDvUmldkNWTVdKpO3-14" vertex="1">
          <mxGeometry x="205" y="730" width="290" height="320" as="geometry" />
        </mxCell>
        <mxCell id="vFeUDvUmldkNWTVdKpO3-224" style="edgeStyle=orthogonalEdgeStyle;rounded=0;orthogonalLoop=1;jettySize=auto;html=1;exitX=0.5;exitY=1;exitDx=0;exitDy=0;entryX=0.5;entryY=0;entryDx=0;entryDy=0;" parent="vFeUDvUmldkNWTVdKpO3-150" source="vFeUDvUmldkNWTVdKpO3-220" target="vFeUDvUmldkNWTVdKpO3-223" edge="1">
          <mxGeometry relative="1" as="geometry" />
        </mxCell>
        <mxCell id="vFeUDvUmldkNWTVdKpO3-220" value="Connects to DB" style="rounded=1;whiteSpace=wrap;html=1;" parent="vFeUDvUmldkNWTVdKpO3-150" vertex="1">
          <mxGeometry x="85" y="40" width="120" height="40" as="geometry" />
        </mxCell>
        <mxCell id="vFeUDvUmldkNWTVdKpO3-221" value="Closes connection" style="rounded=1;whiteSpace=wrap;html=1;" parent="vFeUDvUmldkNWTVdKpO3-150" vertex="1">
          <mxGeometry x="85" y="250" width="120" height="40" as="geometry" />
        </mxCell>
        <mxCell id="vFeUDvUmldkNWTVdKpO3-226" style="edgeStyle=orthogonalEdgeStyle;rounded=0;orthogonalLoop=1;jettySize=auto;html=1;exitX=0.5;exitY=1;exitDx=0;exitDy=0;entryX=0.5;entryY=0;entryDx=0;entryDy=0;" parent="vFeUDvUmldkNWTVdKpO3-150" source="vFeUDvUmldkNWTVdKpO3-222" target="vFeUDvUmldkNWTVdKpO3-221" edge="1">
          <mxGeometry relative="1" as="geometry" />
        </mxCell>
        <mxCell id="vFeUDvUmldkNWTVdKpO3-222" value="Commits changes" style="rounded=1;whiteSpace=wrap;html=1;" parent="vFeUDvUmldkNWTVdKpO3-150" vertex="1">
          <mxGeometry x="85" y="190" width="120" height="40" as="geometry" />
        </mxCell>
        <mxCell id="vFeUDvUmldkNWTVdKpO3-225" style="edgeStyle=orthogonalEdgeStyle;rounded=0;orthogonalLoop=1;jettySize=auto;html=1;exitX=0.5;exitY=1;exitDx=0;exitDy=0;entryX=0.5;entryY=0;entryDx=0;entryDy=0;" parent="vFeUDvUmldkNWTVdKpO3-150" source="vFeUDvUmldkNWTVdKpO3-223" target="vFeUDvUmldkNWTVdKpO3-222" edge="1">
          <mxGeometry relative="1" as="geometry" />
        </mxCell>
        <mxCell id="vFeUDvUmldkNWTVdKpO3-223" value="Creates a new admin with given arguments" style="rounded=1;whiteSpace=wrap;html=1;" parent="vFeUDvUmldkNWTVdKpO3-150" vertex="1">
          <mxGeometry x="85" y="110" width="120" height="60" as="geometry" />
        </mxCell>
        <mxCell id="vFeUDvUmldkNWTVdKpO3-154" value="&lt;div style=&quot;color: rgb(212, 212, 212); background-color: rgb(30, 30, 30); font-family: Menlo, Monaco, &amp;quot;Courier New&amp;quot;, monospace; font-weight: normal; line-height: 18px;&quot;&gt;&lt;div style=&quot;line-height: 18px;&quot;&gt;&lt;div style=&quot;line-height: 18px;&quot;&gt;delete_otp(&lt;span style=&quot;color: #9cdcfe;&quot;&gt;number&lt;/span&gt;)&lt;/div&gt;&lt;/div&gt;&lt;/div&gt;" style="swimlane;whiteSpace=wrap;html=1;" parent="vFeUDvUmldkNWTVdKpO3-14" vertex="1">
          <mxGeometry x="205" y="1060" width="195" height="300" as="geometry" />
        </mxCell>
        <mxCell id="wHaB5puJgnIelVB_-INw-28" style="edgeStyle=orthogonalEdgeStyle;rounded=0;orthogonalLoop=1;jettySize=auto;html=1;exitX=0.5;exitY=1;exitDx=0;exitDy=0;entryX=0.5;entryY=0;entryDx=0;entryDy=0;" edge="1" parent="vFeUDvUmldkNWTVdKpO3-154" source="wHaB5puJgnIelVB_-INw-24" target="wHaB5puJgnIelVB_-INw-27">
          <mxGeometry relative="1" as="geometry" />
        </mxCell>
        <mxCell id="wHaB5puJgnIelVB_-INw-24" value="Connects to DB" style="rounded=1;whiteSpace=wrap;html=1;" vertex="1" parent="vFeUDvUmldkNWTVdKpO3-154">
          <mxGeometry x="37.5" y="40" width="120" height="40" as="geometry" />
        </mxCell>
        <mxCell id="wHaB5puJgnIelVB_-INw-25" value="Closes connection" style="rounded=1;whiteSpace=wrap;html=1;" vertex="1" parent="vFeUDvUmldkNWTVdKpO3-154">
          <mxGeometry x="37.5" y="250" width="120" height="40" as="geometry" />
        </mxCell>
        <mxCell id="wHaB5puJgnIelVB_-INw-30" style="edgeStyle=orthogonalEdgeStyle;rounded=0;orthogonalLoop=1;jettySize=auto;html=1;exitX=0.5;exitY=1;exitDx=0;exitDy=0;entryX=0.5;entryY=0;entryDx=0;entryDy=0;" edge="1" parent="vFeUDvUmldkNWTVdKpO3-154" source="wHaB5puJgnIelVB_-INw-26" target="wHaB5puJgnIelVB_-INw-25">
          <mxGeometry relative="1" as="geometry" />
        </mxCell>
        <mxCell id="wHaB5puJgnIelVB_-INw-26" value="Commits changes" style="rounded=1;whiteSpace=wrap;html=1;" vertex="1" parent="vFeUDvUmldkNWTVdKpO3-154">
          <mxGeometry x="37.5" y="190" width="120" height="40" as="geometry" />
        </mxCell>
        <mxCell id="wHaB5puJgnIelVB_-INw-29" style="edgeStyle=orthogonalEdgeStyle;rounded=0;orthogonalLoop=1;jettySize=auto;html=1;exitX=0.5;exitY=1;exitDx=0;exitDy=0;entryX=0.5;entryY=0;entryDx=0;entryDy=0;" edge="1" parent="vFeUDvUmldkNWTVdKpO3-154" source="wHaB5puJgnIelVB_-INw-27" target="wHaB5puJgnIelVB_-INw-26">
          <mxGeometry relative="1" as="geometry" />
        </mxCell>
        <mxCell id="wHaB5puJgnIelVB_-INw-27" value="Deletes the row from which the OTP key belonged" style="rounded=1;whiteSpace=wrap;html=1;" vertex="1" parent="vFeUDvUmldkNWTVdKpO3-154">
          <mxGeometry x="37.5" y="110" width="120" height="60" as="geometry" />
        </mxCell>
        <mxCell id="vFeUDvUmldkNWTVdKpO3-155" value="&lt;div style=&quot;color: rgb(212, 212, 212); background-color: rgb(30, 30, 30); font-family: Menlo, Monaco, &amp;quot;Courier New&amp;quot;, monospace; font-weight: normal; line-height: 18px;&quot;&gt;&lt;div style=&quot;line-height: 18px;&quot;&gt;&lt;div style=&quot;line-height: 18px;&quot;&gt;&lt;div style=&quot;line-height: 18px;&quot;&gt;delete_all_otp()&lt;/div&gt;&lt;/div&gt;&lt;/div&gt;&lt;/div&gt;" style="swimlane;whiteSpace=wrap;html=1;" parent="vFeUDvUmldkNWTVdKpO3-14" vertex="1">
          <mxGeometry x="410" y="1060" width="180" height="300" as="geometry" />
        </mxCell>
        <mxCell id="wHaB5puJgnIelVB_-INw-42" style="edgeStyle=orthogonalEdgeStyle;rounded=0;orthogonalLoop=1;jettySize=auto;html=1;exitX=0.5;exitY=1;exitDx=0;exitDy=0;entryX=0.5;entryY=0;entryDx=0;entryDy=0;" edge="1" parent="vFeUDvUmldkNWTVdKpO3-155" source="wHaB5puJgnIelVB_-INw-31" target="wHaB5puJgnIelVB_-INw-34">
          <mxGeometry relative="1" as="geometry" />
        </mxCell>
        <mxCell id="wHaB5puJgnIelVB_-INw-31" value="Connects to DB" style="rounded=1;whiteSpace=wrap;html=1;" vertex="1" parent="vFeUDvUmldkNWTVdKpO3-155">
          <mxGeometry x="32.5" y="40" width="120" height="40" as="geometry" />
        </mxCell>
        <mxCell id="wHaB5puJgnIelVB_-INw-32" value="Closes connection" style="rounded=1;whiteSpace=wrap;html=1;" vertex="1" parent="vFeUDvUmldkNWTVdKpO3-155">
          <mxGeometry x="32.5" y="250" width="120" height="40" as="geometry" />
        </mxCell>
        <mxCell id="wHaB5puJgnIelVB_-INw-44" style="edgeStyle=orthogonalEdgeStyle;rounded=0;orthogonalLoop=1;jettySize=auto;html=1;exitX=0.5;exitY=1;exitDx=0;exitDy=0;entryX=0.5;entryY=0;entryDx=0;entryDy=0;" edge="1" parent="vFeUDvUmldkNWTVdKpO3-155" source="wHaB5puJgnIelVB_-INw-33" target="wHaB5puJgnIelVB_-INw-32">
          <mxGeometry relative="1" as="geometry" />
        </mxCell>
        <mxCell id="wHaB5puJgnIelVB_-INw-33" value="Commits changes" style="rounded=1;whiteSpace=wrap;html=1;" vertex="1" parent="vFeUDvUmldkNWTVdKpO3-155">
          <mxGeometry x="32.5" y="190" width="120" height="40" as="geometry" />
        </mxCell>
        <mxCell id="wHaB5puJgnIelVB_-INw-43" style="edgeStyle=orthogonalEdgeStyle;rounded=0;orthogonalLoop=1;jettySize=auto;html=1;exitX=0.5;exitY=1;exitDx=0;exitDy=0;entryX=0.5;entryY=0;entryDx=0;entryDy=0;" edge="1" parent="vFeUDvUmldkNWTVdKpO3-155" source="wHaB5puJgnIelVB_-INw-34" target="wHaB5puJgnIelVB_-INw-33">
          <mxGeometry relative="1" as="geometry" />
        </mxCell>
        <mxCell id="wHaB5puJgnIelVB_-INw-34" value="Drops all OTPs" style="rounded=1;whiteSpace=wrap;html=1;" vertex="1" parent="vFeUDvUmldkNWTVdKpO3-155">
          <mxGeometry x="32.5" y="110" width="120" height="60" as="geometry" />
        </mxCell>
        <mxCell id="vFeUDvUmldkNWTVdKpO3-168" value="&lt;div style=&quot;color: rgb(212, 212, 212); background-color: rgb(30, 30, 30); font-family: Menlo, Monaco, &amp;quot;Courier New&amp;quot;, monospace; font-weight: normal; line-height: 18px;&quot;&gt;&lt;div style=&quot;line-height: 18px;&quot;&gt;delete_all_users()&lt;/div&gt;&lt;/div&gt;" style="swimlane;whiteSpace=wrap;html=1;" parent="vFeUDvUmldkNWTVdKpO3-14" vertex="1">
          <mxGeometry x="512.5" y="730" width="197.5" height="320" as="geometry" />
        </mxCell>
        <mxCell id="wHaB5puJgnIelVB_-INw-21" style="edgeStyle=orthogonalEdgeStyle;rounded=0;orthogonalLoop=1;jettySize=auto;html=1;exitX=0.5;exitY=1;exitDx=0;exitDy=0;" edge="1" parent="vFeUDvUmldkNWTVdKpO3-168" source="wHaB5puJgnIelVB_-INw-17" target="wHaB5puJgnIelVB_-INw-20">
          <mxGeometry relative="1" as="geometry" />
        </mxCell>
        <mxCell id="wHaB5puJgnIelVB_-INw-17" value="Connects to DB" style="rounded=1;whiteSpace=wrap;html=1;" vertex="1" parent="vFeUDvUmldkNWTVdKpO3-168">
          <mxGeometry x="38.75" y="40" width="120" height="40" as="geometry" />
        </mxCell>
        <mxCell id="wHaB5puJgnIelVB_-INw-18" value="Closes connection" style="rounded=1;whiteSpace=wrap;html=1;" vertex="1" parent="vFeUDvUmldkNWTVdKpO3-168">
          <mxGeometry x="38.75" y="250" width="120" height="40" as="geometry" />
        </mxCell>
        <mxCell id="wHaB5puJgnIelVB_-INw-23" style="edgeStyle=orthogonalEdgeStyle;rounded=0;orthogonalLoop=1;jettySize=auto;html=1;exitX=0.5;exitY=1;exitDx=0;exitDy=0;entryX=0.5;entryY=0;entryDx=0;entryDy=0;" edge="1" parent="vFeUDvUmldkNWTVdKpO3-168" source="wHaB5puJgnIelVB_-INw-19" target="wHaB5puJgnIelVB_-INw-18">
          <mxGeometry relative="1" as="geometry" />
        </mxCell>
        <mxCell id="wHaB5puJgnIelVB_-INw-19" value="Commits changes" style="rounded=1;whiteSpace=wrap;html=1;" vertex="1" parent="vFeUDvUmldkNWTVdKpO3-168">
          <mxGeometry x="38.75" y="190" width="120" height="40" as="geometry" />
        </mxCell>
        <mxCell id="wHaB5puJgnIelVB_-INw-22" style="edgeStyle=orthogonalEdgeStyle;rounded=0;orthogonalLoop=1;jettySize=auto;html=1;exitX=0.5;exitY=1;exitDx=0;exitDy=0;entryX=0.5;entryY=0;entryDx=0;entryDy=0;" edge="1" parent="vFeUDvUmldkNWTVdKpO3-168" source="wHaB5puJgnIelVB_-INw-20" target="wHaB5puJgnIelVB_-INw-19">
          <mxGeometry relative="1" as="geometry" />
        </mxCell>
        <mxCell id="wHaB5puJgnIelVB_-INw-20" value="Drops all users" style="rounded=1;whiteSpace=wrap;html=1;" vertex="1" parent="vFeUDvUmldkNWTVdKpO3-168">
          <mxGeometry x="38.75" y="110" width="120" height="60" as="geometry" />
        </mxCell>
        <mxCell id="vFeUDvUmldkNWTVdKpO3-170" value="&lt;div style=&quot;color: rgb(212, 212, 212); background-color: rgb(30, 30, 30); font-family: Menlo, Monaco, &amp;quot;Courier New&amp;quot;, monospace; font-weight: normal; line-height: 18px;&quot;&gt;&lt;div style=&quot;line-height: 18px;&quot;&gt;&lt;div style=&quot;line-height: 18px;&quot;&gt;&lt;div style=&quot;line-height: 18px;&quot;&gt;get_email(&lt;span style=&quot;color: #9cdcfe;&quot;&gt;username&lt;/span&gt;)&lt;/div&gt;&lt;/div&gt;&lt;/div&gt;&lt;/div&gt;" style="swimlane;whiteSpace=wrap;html=1;" parent="vFeUDvUmldkNWTVdKpO3-14" vertex="1">
          <mxGeometry x="605" y="1060" width="215" height="300" as="geometry" />
        </mxCell>
        <mxCell id="wHaB5puJgnIelVB_-INw-39" style="edgeStyle=orthogonalEdgeStyle;rounded=0;orthogonalLoop=1;jettySize=auto;html=1;exitX=0.5;exitY=1;exitDx=0;exitDy=0;entryX=0.5;entryY=0;entryDx=0;entryDy=0;" edge="1" parent="vFeUDvUmldkNWTVdKpO3-170" source="wHaB5puJgnIelVB_-INw-35" target="wHaB5puJgnIelVB_-INw-38">
          <mxGeometry relative="1" as="geometry" />
        </mxCell>
        <mxCell id="wHaB5puJgnIelVB_-INw-35" value="Connects to DB" style="rounded=1;whiteSpace=wrap;html=1;" vertex="1" parent="vFeUDvUmldkNWTVdKpO3-170">
          <mxGeometry x="47.5" y="40" width="120" height="40" as="geometry" />
        </mxCell>
        <mxCell id="wHaB5puJgnIelVB_-INw-36" value="Returns result" style="rounded=1;whiteSpace=wrap;html=1;" vertex="1" parent="vFeUDvUmldkNWTVdKpO3-170">
          <mxGeometry x="47.5" y="250" width="120" height="40" as="geometry" />
        </mxCell>
        <mxCell id="wHaB5puJgnIelVB_-INw-41" style="edgeStyle=orthogonalEdgeStyle;rounded=0;orthogonalLoop=1;jettySize=auto;html=1;exitX=0.5;exitY=1;exitDx=0;exitDy=0;entryX=0.5;entryY=0;entryDx=0;entryDy=0;" edge="1" parent="vFeUDvUmldkNWTVdKpO3-170" source="wHaB5puJgnIelVB_-INw-37" target="wHaB5puJgnIelVB_-INw-36">
          <mxGeometry relative="1" as="geometry" />
        </mxCell>
        <mxCell id="wHaB5puJgnIelVB_-INw-37" value="Make the result into a string" style="rounded=1;whiteSpace=wrap;html=1;" vertex="1" parent="vFeUDvUmldkNWTVdKpO3-170">
          <mxGeometry x="47.5" y="190" width="120" height="40" as="geometry" />
        </mxCell>
        <mxCell id="wHaB5puJgnIelVB_-INw-40" style="edgeStyle=orthogonalEdgeStyle;rounded=0;orthogonalLoop=1;jettySize=auto;html=1;exitX=0.5;exitY=1;exitDx=0;exitDy=0;entryX=0.5;entryY=0;entryDx=0;entryDy=0;" edge="1" parent="vFeUDvUmldkNWTVdKpO3-170" source="wHaB5puJgnIelVB_-INw-38" target="wHaB5puJgnIelVB_-INw-37">
          <mxGeometry relative="1" as="geometry" />
        </mxCell>
        <mxCell id="wHaB5puJgnIelVB_-INw-38" value="Gets the encrypted email from the provided username" style="rounded=1;whiteSpace=wrap;html=1;" vertex="1" parent="vFeUDvUmldkNWTVdKpO3-170">
          <mxGeometry x="47.5" y="110" width="120" height="60" as="geometry" />
        </mxCell>
        <mxCell id="vFeUDvUmldkNWTVdKpO3-171" value="&lt;div style=&quot;color: rgb(212, 212, 212); background-color: rgb(30, 30, 30); font-family: Menlo, Monaco, &amp;quot;Courier New&amp;quot;, monospace; font-weight: normal; line-height: 18px;&quot;&gt;&lt;div style=&quot;line-height: 18px;&quot;&gt;&lt;div style=&quot;line-height: 18px;&quot;&gt;change_user_info(&lt;span style=&quot;color: #9cdcfe;&quot;&gt;id&lt;/span&gt;, &lt;span style=&quot;color: #9cdcfe;&quot;&gt;name&lt;/span&gt;,&amp;nbsp;&lt;span style=&quot;color: #9cdcfe;&quot;&gt;address&lt;/span&gt;, &lt;span style=&quot;color: #9cdcfe;&quot;&gt;ip&lt;/span&gt;, &lt;span style=&quot;color: #9cdcfe;&quot;&gt;mac&lt;/span&gt;, &lt;span style=&quot;color: #9cdcfe;&quot;&gt;last_activity&lt;/span&gt;, &lt;span style=&quot;color: #9cdcfe;&quot;&gt;length_of_brush&lt;/span&gt;)&lt;/div&gt;&lt;/div&gt;&lt;/div&gt;" style="swimlane;whiteSpace=wrap;html=1;" parent="vFeUDvUmldkNWTVdKpO3-14" vertex="1">
          <mxGeometry x="205" y="1380" width="650" height="710" as="geometry" />
        </mxCell>
        <mxCell id="wHaB5puJgnIelVB_-INw-83" style="edgeStyle=orthogonalEdgeStyle;rounded=0;orthogonalLoop=1;jettySize=auto;html=1;exitX=0.5;exitY=1;exitDx=0;exitDy=0;entryX=0.5;entryY=0;entryDx=0;entryDy=0;" edge="1" parent="vFeUDvUmldkNWTVdKpO3-171" source="wHaB5puJgnIelVB_-INw-46" target="wHaB5puJgnIelVB_-INw-48">
          <mxGeometry relative="1" as="geometry" />
        </mxCell>
        <mxCell id="wHaB5puJgnIelVB_-INw-46" value="Connects to DB" style="rounded=1;whiteSpace=wrap;html=1;" vertex="1" parent="vFeUDvUmldkNWTVdKpO3-171">
          <mxGeometry x="223.5" y="40" width="120" height="40" as="geometry" />
        </mxCell>
        <mxCell id="wHaB5puJgnIelVB_-INw-51" style="edgeStyle=orthogonalEdgeStyle;rounded=0;orthogonalLoop=1;jettySize=auto;html=1;exitX=1;exitY=0.5;exitDx=0;exitDy=0;entryX=0;entryY=0.5;entryDx=0;entryDy=0;" edge="1" parent="vFeUDvUmldkNWTVdKpO3-171" source="wHaB5puJgnIelVB_-INw-48" target="wHaB5puJgnIelVB_-INw-50">
          <mxGeometry relative="1" as="geometry" />
        </mxCell>
        <mxCell id="wHaB5puJgnIelVB_-INw-84" style="edgeStyle=orthogonalEdgeStyle;rounded=0;orthogonalLoop=1;jettySize=auto;html=1;exitX=0.5;exitY=1;exitDx=0;exitDy=0;entryX=0.5;entryY=0;entryDx=0;entryDy=0;" edge="1" parent="vFeUDvUmldkNWTVdKpO3-171" source="wHaB5puJgnIelVB_-INw-48" target="wHaB5puJgnIelVB_-INw-53">
          <mxGeometry relative="1" as="geometry" />
        </mxCell>
        <mxCell id="wHaB5puJgnIelVB_-INw-48" value="If an ID has been provided:&amp;nbsp;" style="rounded=1;whiteSpace=wrap;html=1;" vertex="1" parent="vFeUDvUmldkNWTVdKpO3-171">
          <mxGeometry x="221" y="100" width="120" height="50" as="geometry" />
        </mxCell>
        <mxCell id="wHaB5puJgnIelVB_-INw-52" style="edgeStyle=orthogonalEdgeStyle;rounded=0;orthogonalLoop=1;jettySize=auto;html=1;exitX=0;exitY=0.5;exitDx=0;exitDy=0;entryX=1;entryY=0.5;entryDx=0;entryDy=0;" edge="1" parent="vFeUDvUmldkNWTVdKpO3-171" source="wHaB5puJgnIelVB_-INw-50" target="wHaB5puJgnIelVB_-INw-48">
          <mxGeometry relative="1" as="geometry" />
        </mxCell>
        <mxCell id="wHaB5puJgnIelVB_-INw-50" value="Change the id in the DB with the provided id" style="rounded=1;whiteSpace=wrap;html=1;" vertex="1" parent="vFeUDvUmldkNWTVdKpO3-171">
          <mxGeometry x="368.5" y="100" width="120" height="50" as="geometry" />
        </mxCell>
        <mxCell id="wHaB5puJgnIelVB_-INw-69" style="edgeStyle=orthogonalEdgeStyle;rounded=0;orthogonalLoop=1;jettySize=auto;html=1;exitX=1;exitY=0.5;exitDx=0;exitDy=0;entryX=0;entryY=0.5;entryDx=0;entryDy=0;" edge="1" parent="vFeUDvUmldkNWTVdKpO3-171" source="wHaB5puJgnIelVB_-INw-53" target="wHaB5puJgnIelVB_-INw-59">
          <mxGeometry relative="1" as="geometry" />
        </mxCell>
        <mxCell id="wHaB5puJgnIelVB_-INw-85" style="edgeStyle=orthogonalEdgeStyle;rounded=0;orthogonalLoop=1;jettySize=auto;html=1;exitX=0.5;exitY=1;exitDx=0;exitDy=0;entryX=0.5;entryY=0;entryDx=0;entryDy=0;" edge="1" parent="vFeUDvUmldkNWTVdKpO3-171" source="wHaB5puJgnIelVB_-INw-53" target="wHaB5puJgnIelVB_-INw-55">
          <mxGeometry relative="1" as="geometry" />
        </mxCell>
        <mxCell id="wHaB5puJgnIelVB_-INw-53" value="If an name has been provided:&amp;nbsp;" style="rounded=1;whiteSpace=wrap;html=1;" vertex="1" parent="vFeUDvUmldkNWTVdKpO3-171">
          <mxGeometry x="223.5" y="170" width="120" height="50" as="geometry" />
        </mxCell>
        <mxCell id="wHaB5puJgnIelVB_-INw-70" style="edgeStyle=orthogonalEdgeStyle;rounded=0;orthogonalLoop=1;jettySize=auto;html=1;exitX=1;exitY=0.5;exitDx=0;exitDy=0;entryX=0;entryY=0.5;entryDx=0;entryDy=0;" edge="1" parent="vFeUDvUmldkNWTVdKpO3-171" source="wHaB5puJgnIelVB_-INw-55" target="wHaB5puJgnIelVB_-INw-62">
          <mxGeometry relative="1" as="geometry" />
        </mxCell>
        <mxCell id="wHaB5puJgnIelVB_-INw-86" style="edgeStyle=orthogonalEdgeStyle;rounded=0;orthogonalLoop=1;jettySize=auto;html=1;exitX=0.5;exitY=1;exitDx=0;exitDy=0;entryX=0.5;entryY=0;entryDx=0;entryDy=0;" edge="1" parent="vFeUDvUmldkNWTVdKpO3-171" source="wHaB5puJgnIelVB_-INw-55" target="wHaB5puJgnIelVB_-INw-56">
          <mxGeometry relative="1" as="geometry" />
        </mxCell>
        <mxCell id="wHaB5puJgnIelVB_-INw-55" value="If an address has been provided:&amp;nbsp;" style="rounded=1;whiteSpace=wrap;html=1;" vertex="1" parent="vFeUDvUmldkNWTVdKpO3-171">
          <mxGeometry x="223.5" y="240" width="120" height="50" as="geometry" />
        </mxCell>
        <mxCell id="wHaB5puJgnIelVB_-INw-71" style="edgeStyle=orthogonalEdgeStyle;rounded=0;orthogonalLoop=1;jettySize=auto;html=1;exitX=1;exitY=0.5;exitDx=0;exitDy=0;entryX=0;entryY=0.5;entryDx=0;entryDy=0;" edge="1" parent="vFeUDvUmldkNWTVdKpO3-171" source="wHaB5puJgnIelVB_-INw-56" target="wHaB5puJgnIelVB_-INw-63">
          <mxGeometry relative="1" as="geometry" />
        </mxCell>
        <mxCell id="wHaB5puJgnIelVB_-INw-87" style="edgeStyle=orthogonalEdgeStyle;rounded=0;orthogonalLoop=1;jettySize=auto;html=1;exitX=0.5;exitY=1;exitDx=0;exitDy=0;entryX=0.5;entryY=0;entryDx=0;entryDy=0;" edge="1" parent="vFeUDvUmldkNWTVdKpO3-171" source="wHaB5puJgnIelVB_-INw-56" target="wHaB5puJgnIelVB_-INw-57">
          <mxGeometry relative="1" as="geometry" />
        </mxCell>
        <mxCell id="wHaB5puJgnIelVB_-INw-56" value="If an IP has been provided:&amp;nbsp;" style="rounded=1;whiteSpace=wrap;html=1;" vertex="1" parent="vFeUDvUmldkNWTVdKpO3-171">
          <mxGeometry x="223.5" y="310" width="120" height="50" as="geometry" />
        </mxCell>
        <mxCell id="wHaB5puJgnIelVB_-INw-72" style="edgeStyle=orthogonalEdgeStyle;rounded=0;orthogonalLoop=1;jettySize=auto;html=1;exitX=1;exitY=0.5;exitDx=0;exitDy=0;entryX=0;entryY=0.5;entryDx=0;entryDy=0;" edge="1" parent="vFeUDvUmldkNWTVdKpO3-171" source="wHaB5puJgnIelVB_-INw-57" target="wHaB5puJgnIelVB_-INw-64">
          <mxGeometry relative="1" as="geometry" />
        </mxCell>
        <mxCell id="wHaB5puJgnIelVB_-INw-88" style="edgeStyle=orthogonalEdgeStyle;rounded=0;orthogonalLoop=1;jettySize=auto;html=1;exitX=0.5;exitY=1;exitDx=0;exitDy=0;entryX=0.5;entryY=0;entryDx=0;entryDy=0;" edge="1" parent="vFeUDvUmldkNWTVdKpO3-171" source="wHaB5puJgnIelVB_-INw-57" target="wHaB5puJgnIelVB_-INw-60">
          <mxGeometry relative="1" as="geometry" />
        </mxCell>
        <mxCell id="wHaB5puJgnIelVB_-INw-57" value="If a MAC address has been provided:&amp;nbsp;" style="rounded=1;whiteSpace=wrap;html=1;" vertex="1" parent="vFeUDvUmldkNWTVdKpO3-171">
          <mxGeometry x="221" y="380" width="120" height="50" as="geometry" />
        </mxCell>
        <mxCell id="wHaB5puJgnIelVB_-INw-75" style="edgeStyle=orthogonalEdgeStyle;rounded=0;orthogonalLoop=1;jettySize=auto;html=1;exitX=0;exitY=0.5;exitDx=0;exitDy=0;entryX=1;entryY=0.5;entryDx=0;entryDy=0;" edge="1" parent="vFeUDvUmldkNWTVdKpO3-171" source="wHaB5puJgnIelVB_-INw-59" target="wHaB5puJgnIelVB_-INw-53">
          <mxGeometry relative="1" as="geometry" />
        </mxCell>
        <mxCell id="wHaB5puJgnIelVB_-INw-59" value="Change the name in the DB with the provided id" style="rounded=1;whiteSpace=wrap;html=1;" vertex="1" parent="vFeUDvUmldkNWTVdKpO3-171">
          <mxGeometry x="368.5" y="170" width="120" height="50" as="geometry" />
        </mxCell>
        <mxCell id="wHaB5puJgnIelVB_-INw-73" style="edgeStyle=orthogonalEdgeStyle;rounded=0;orthogonalLoop=1;jettySize=auto;html=1;exitX=1;exitY=0.5;exitDx=0;exitDy=0;entryX=0;entryY=0.5;entryDx=0;entryDy=0;" edge="1" parent="vFeUDvUmldkNWTVdKpO3-171" source="wHaB5puJgnIelVB_-INw-60" target="wHaB5puJgnIelVB_-INw-65">
          <mxGeometry relative="1" as="geometry" />
        </mxCell>
        <mxCell id="wHaB5puJgnIelVB_-INw-89" style="edgeStyle=orthogonalEdgeStyle;rounded=0;orthogonalLoop=1;jettySize=auto;html=1;exitX=0.5;exitY=1;exitDx=0;exitDy=0;entryX=0.5;entryY=0;entryDx=0;entryDy=0;" edge="1" parent="vFeUDvUmldkNWTVdKpO3-171" source="wHaB5puJgnIelVB_-INw-60" target="wHaB5puJgnIelVB_-INw-61">
          <mxGeometry relative="1" as="geometry" />
        </mxCell>
        <mxCell id="wHaB5puJgnIelVB_-INw-60" value="If a last activity has been provided:&amp;nbsp;" style="rounded=1;whiteSpace=wrap;html=1;" vertex="1" parent="vFeUDvUmldkNWTVdKpO3-171">
          <mxGeometry x="221" y="450" width="120" height="50" as="geometry" />
        </mxCell>
        <mxCell id="wHaB5puJgnIelVB_-INw-74" style="edgeStyle=orthogonalEdgeStyle;rounded=0;orthogonalLoop=1;jettySize=auto;html=1;exitX=1;exitY=0.5;exitDx=0;exitDy=0;entryX=0;entryY=0.5;entryDx=0;entryDy=0;" edge="1" parent="vFeUDvUmldkNWTVdKpO3-171" source="wHaB5puJgnIelVB_-INw-61" target="wHaB5puJgnIelVB_-INw-66">
          <mxGeometry relative="1" as="geometry" />
        </mxCell>
        <mxCell id="wHaB5puJgnIelVB_-INw-81" style="edgeStyle=orthogonalEdgeStyle;rounded=0;orthogonalLoop=1;jettySize=auto;html=1;exitX=0.5;exitY=1;exitDx=0;exitDy=0;entryX=0.5;entryY=0;entryDx=0;entryDy=0;" edge="1" parent="vFeUDvUmldkNWTVdKpO3-171" source="wHaB5puJgnIelVB_-INw-61" target="wHaB5puJgnIelVB_-INw-68">
          <mxGeometry relative="1" as="geometry" />
        </mxCell>
        <mxCell id="wHaB5puJgnIelVB_-INw-61" value="If a the length of brush has been provided:&amp;nbsp;" style="rounded=1;whiteSpace=wrap;html=1;" vertex="1" parent="vFeUDvUmldkNWTVdKpO3-171">
          <mxGeometry x="221" y="520" width="120" height="50" as="geometry" />
        </mxCell>
        <mxCell id="wHaB5puJgnIelVB_-INw-76" style="edgeStyle=orthogonalEdgeStyle;rounded=0;orthogonalLoop=1;jettySize=auto;html=1;exitX=0;exitY=0.5;exitDx=0;exitDy=0;entryX=1;entryY=0.5;entryDx=0;entryDy=0;" edge="1" parent="vFeUDvUmldkNWTVdKpO3-171" source="wHaB5puJgnIelVB_-INw-62" target="wHaB5puJgnIelVB_-INw-55">
          <mxGeometry relative="1" as="geometry" />
        </mxCell>
        <mxCell id="wHaB5puJgnIelVB_-INw-62" value="Change the name in the DB with the provided id" style="rounded=1;whiteSpace=wrap;html=1;" vertex="1" parent="vFeUDvUmldkNWTVdKpO3-171">
          <mxGeometry x="368.5" y="240" width="120" height="50" as="geometry" />
        </mxCell>
        <mxCell id="wHaB5puJgnIelVB_-INw-77" style="edgeStyle=orthogonalEdgeStyle;rounded=0;orthogonalLoop=1;jettySize=auto;html=1;exitX=0;exitY=0.5;exitDx=0;exitDy=0;entryX=1;entryY=0.5;entryDx=0;entryDy=0;" edge="1" parent="vFeUDvUmldkNWTVdKpO3-171" source="wHaB5puJgnIelVB_-INw-63" target="wHaB5puJgnIelVB_-INw-56">
          <mxGeometry relative="1" as="geometry" />
        </mxCell>
        <mxCell id="wHaB5puJgnIelVB_-INw-63" value="Change the name in the DB with the provided id" style="rounded=1;whiteSpace=wrap;html=1;" vertex="1" parent="vFeUDvUmldkNWTVdKpO3-171">
          <mxGeometry x="368.5" y="310" width="120" height="50" as="geometry" />
        </mxCell>
        <mxCell id="wHaB5puJgnIelVB_-INw-78" style="edgeStyle=orthogonalEdgeStyle;rounded=0;orthogonalLoop=1;jettySize=auto;html=1;exitX=0;exitY=0.5;exitDx=0;exitDy=0;entryX=1;entryY=0.5;entryDx=0;entryDy=0;" edge="1" parent="vFeUDvUmldkNWTVdKpO3-171" source="wHaB5puJgnIelVB_-INw-64" target="wHaB5puJgnIelVB_-INw-57">
          <mxGeometry relative="1" as="geometry" />
        </mxCell>
        <mxCell id="wHaB5puJgnIelVB_-INw-64" value="Change the name in the DB with the provided id" style="rounded=1;whiteSpace=wrap;html=1;" vertex="1" parent="vFeUDvUmldkNWTVdKpO3-171">
          <mxGeometry x="368.5" y="380" width="120" height="50" as="geometry" />
        </mxCell>
        <mxCell id="wHaB5puJgnIelVB_-INw-79" style="edgeStyle=orthogonalEdgeStyle;rounded=0;orthogonalLoop=1;jettySize=auto;html=1;exitX=0;exitY=0.5;exitDx=0;exitDy=0;" edge="1" parent="vFeUDvUmldkNWTVdKpO3-171" source="wHaB5puJgnIelVB_-INw-65">
          <mxGeometry relative="1" as="geometry">
            <mxPoint x="338.5" y="475" as="targetPoint" />
          </mxGeometry>
        </mxCell>
        <mxCell id="wHaB5puJgnIelVB_-INw-65" value="Change the name in the DB with the provided id" style="rounded=1;whiteSpace=wrap;html=1;" vertex="1" parent="vFeUDvUmldkNWTVdKpO3-171">
          <mxGeometry x="368.5" y="450" width="120" height="50" as="geometry" />
        </mxCell>
        <mxCell id="wHaB5puJgnIelVB_-INw-80" style="edgeStyle=orthogonalEdgeStyle;rounded=0;orthogonalLoop=1;jettySize=auto;html=1;exitX=0;exitY=0.5;exitDx=0;exitDy=0;entryX=1;entryY=0.5;entryDx=0;entryDy=0;" edge="1" parent="vFeUDvUmldkNWTVdKpO3-171" source="wHaB5puJgnIelVB_-INw-66" target="wHaB5puJgnIelVB_-INw-61">
          <mxGeometry relative="1" as="geometry" />
        </mxCell>
        <mxCell id="wHaB5puJgnIelVB_-INw-66" value="Change the name in the DB with the provided id" style="rounded=1;whiteSpace=wrap;html=1;" vertex="1" parent="vFeUDvUmldkNWTVdKpO3-171">
          <mxGeometry x="368.5" y="520" width="120" height="50" as="geometry" />
        </mxCell>
        <mxCell id="wHaB5puJgnIelVB_-INw-67" value="Closes connection" style="rounded=1;whiteSpace=wrap;html=1;" vertex="1" parent="vFeUDvUmldkNWTVdKpO3-171">
          <mxGeometry x="223.5" y="650" width="120" height="40" as="geometry" />
        </mxCell>
        <mxCell id="wHaB5puJgnIelVB_-INw-82" style="edgeStyle=orthogonalEdgeStyle;rounded=0;orthogonalLoop=1;jettySize=auto;html=1;exitX=0.5;exitY=1;exitDx=0;exitDy=0;entryX=0.5;entryY=0;entryDx=0;entryDy=0;" edge="1" parent="vFeUDvUmldkNWTVdKpO3-171" source="wHaB5puJgnIelVB_-INw-68" target="wHaB5puJgnIelVB_-INw-67">
          <mxGeometry relative="1" as="geometry" />
        </mxCell>
        <mxCell id="wHaB5puJgnIelVB_-INw-68" value="Commits changes" style="rounded=1;whiteSpace=wrap;html=1;" vertex="1" parent="vFeUDvUmldkNWTVdKpO3-171">
          <mxGeometry x="223.5" y="590" width="120" height="40" as="geometry" />
        </mxCell>
        <mxCell id="vFeUDvUmldkNWTVdKpO3-172" value="&lt;div style=&quot;color: rgb(212, 212, 212); background-color: rgb(30, 30, 30); font-family: Menlo, Monaco, &amp;quot;Courier New&amp;quot;, monospace; font-weight: normal; line-height: 18px;&quot;&gt;&lt;div style=&quot;line-height: 18px;&quot;&gt;&lt;div style=&quot;line-height: 18px;&quot;&gt;&lt;div style=&quot;line-height: 18px;&quot;&gt;upload_to_db(&lt;span style=&quot;color: #9cdcfe;&quot;&gt;data&lt;/span&gt;)&lt;/div&gt;&lt;/div&gt;&lt;/div&gt;&lt;/div&gt;" style="swimlane;whiteSpace=wrap;html=1;" parent="vFeUDvUmldkNWTVdKpO3-14" vertex="1">
          <mxGeometry x="855" y="1000" width="345" height="90" as="geometry" />
        </mxCell>
        <mxCell id="vFeUDvUmldkNWTVdKpO3-173" value="&lt;div style=&quot;color: rgb(212, 212, 212); background-color: rgb(30, 30, 30); font-family: Menlo, Monaco, &amp;quot;Courier New&amp;quot;, monospace; font-weight: normal; line-height: 18px;&quot;&gt;&lt;div style=&quot;line-height: 18px;&quot;&gt;&lt;div style=&quot;line-height: 18px;&quot;&gt;&lt;div style=&quot;line-height: 18px;&quot;&gt;&lt;div style=&quot;line-height: 18px;&quot;&gt;check_admin_user(&lt;span style=&quot;color: #9cdcfe;&quot;&gt;username&lt;/span&gt;, &lt;span style=&quot;color: #9cdcfe;&quot;&gt;password&lt;/span&gt;)&lt;/div&gt;&lt;/div&gt;&lt;/div&gt;&lt;/div&gt;&lt;/div&gt;" style="swimlane;whiteSpace=wrap;html=1;" parent="vFeUDvUmldkNWTVdKpO3-14" vertex="1">
          <mxGeometry x="855" y="1230" width="345" height="90" as="geometry" />
        </mxCell>
        <mxCell id="vFeUDvUmldkNWTVdKpO3-174" value="&lt;div style=&quot;color: rgb(212, 212, 212); background-color: rgb(30, 30, 30); font-family: Menlo, Monaco, &amp;quot;Courier New&amp;quot;, monospace; font-weight: normal; line-height: 18px;&quot;&gt;&lt;div style=&quot;line-height: 18px;&quot;&gt;&lt;div style=&quot;line-height: 18px;&quot;&gt;&lt;div style=&quot;line-height: 18px;&quot;&gt;&lt;div style=&quot;line-height: 18px;&quot;&gt;&lt;div style=&quot;line-height: 18px;&quot;&gt;&lt;div style=&quot;line-height: 18px;&quot;&gt;init_holders()&lt;/div&gt;&lt;/div&gt;&lt;/div&gt;&lt;/div&gt;&lt;/div&gt;&lt;/div&gt;&lt;/div&gt;" style="swimlane;whiteSpace=wrap;html=1;" parent="vFeUDvUmldkNWTVdKpO3-14" vertex="1">
          <mxGeometry x="330" y="2200" width="345" height="90" as="geometry" />
        </mxCell>
        <mxCell id="vFeUDvUmldkNWTVdKpO3-175" value="&lt;div style=&quot;color: rgb(212, 212, 212); background-color: rgb(30, 30, 30); font-family: Menlo, Monaco, &amp;quot;Courier New&amp;quot;, monospace; font-weight: normal; line-height: 18px;&quot;&gt;&lt;div style=&quot;line-height: 18px;&quot;&gt;&lt;div style=&quot;line-height: 18px;&quot;&gt;&lt;div style=&quot;line-height: 18px;&quot;&gt;&lt;div style=&quot;line-height: 18px;&quot;&gt;&lt;div style=&quot;line-height: 18px;&quot;&gt;&lt;div style=&quot;line-height: 18px;&quot;&gt;get_user_ip(&lt;span style=&quot;color: #9cdcfe;&quot;&gt;id&lt;/span&gt;)&lt;/div&gt;&lt;/div&gt;&lt;/div&gt;&lt;/div&gt;&lt;/div&gt;&lt;/div&gt;&lt;/div&gt;" style="swimlane;whiteSpace=wrap;html=1;" parent="vFeUDvUmldkNWTVdKpO3-14" vertex="1">
          <mxGeometry x="330" y="2320" width="345" height="90" as="geometry" />
        </mxCell>
        <mxCell id="vFeUDvUmldkNWTVdKpO3-176" value="&lt;div style=&quot;color: rgb(212, 212, 212); background-color: rgb(30, 30, 30); font-family: Menlo, Monaco, &amp;quot;Courier New&amp;quot;, monospace; font-weight: normal; line-height: 18px;&quot;&gt;&lt;div style=&quot;line-height: 18px;&quot;&gt;&lt;div style=&quot;line-height: 18px;&quot;&gt;&lt;div style=&quot;line-height: 18px;&quot;&gt;&lt;div style=&quot;line-height: 18px;&quot;&gt;&lt;div style=&quot;line-height: 18px;&quot;&gt;&lt;div style=&quot;line-height: 18px;&quot;&gt;update_time_test(&lt;span style=&quot;color: #9cdcfe;&quot;&gt;id&lt;/span&gt;)&lt;/div&gt;&lt;/div&gt;&lt;/div&gt;&lt;/div&gt;&lt;/div&gt;&lt;/div&gt;&lt;/div&gt;" style="swimlane;whiteSpace=wrap;html=1;" parent="vFeUDvUmldkNWTVdKpO3-14" vertex="1">
          <mxGeometry x="330" y="2440" width="345" height="90" as="geometry" />
        </mxCell>
        <mxCell id="vFeUDvUmldkNWTVdKpO3-177" value="&lt;div style=&quot;color: rgb(212, 212, 212); background-color: rgb(30, 30, 30); font-family: Menlo, Monaco, &amp;quot;Courier New&amp;quot;, monospace; font-weight: normal; line-height: 18px;&quot;&gt;&lt;div style=&quot;line-height: 18px;&quot;&gt;&lt;div style=&quot;line-height: 18px;&quot;&gt;&lt;div style=&quot;line-height: 18px;&quot;&gt;&lt;div style=&quot;line-height: 18px;&quot;&gt;&lt;div style=&quot;line-height: 18px;&quot;&gt;&lt;div style=&quot;line-height: 18px;&quot;&gt;get_user_time(&lt;span style=&quot;color: #9cdcfe;&quot;&gt;id&lt;/span&gt;)&lt;/div&gt;&lt;/div&gt;&lt;/div&gt;&lt;/div&gt;&lt;/div&gt;&lt;/div&gt;&lt;/div&gt;" style="swimlane;whiteSpace=wrap;html=1;" parent="vFeUDvUmldkNWTVdKpO3-14" vertex="1">
          <mxGeometry x="330" y="2570" width="345" height="90" as="geometry" />
        </mxCell>
        <mxCell id="vFeUDvUmldkNWTVdKpO3-178" value="&lt;div style=&quot;color: rgb(212, 212, 212); background-color: rgb(30, 30, 30); font-family: Menlo, Monaco, &amp;quot;Courier New&amp;quot;, monospace; font-weight: normal; line-height: 18px;&quot;&gt;&lt;div style=&quot;line-height: 18px;&quot;&gt;&lt;div style=&quot;line-height: 18px;&quot;&gt;&lt;div style=&quot;line-height: 18px;&quot;&gt;&lt;div style=&quot;line-height: 18px;&quot;&gt;&lt;div style=&quot;line-height: 18px;&quot;&gt;&lt;div style=&quot;line-height: 18px;&quot;&gt;generate_id()&lt;/div&gt;&lt;/div&gt;&lt;/div&gt;&lt;/div&gt;&lt;/div&gt;&lt;/div&gt;&lt;/div&gt;" style="swimlane;whiteSpace=wrap;html=1;" parent="vFeUDvUmldkNWTVdKpO3-14" vertex="1">
          <mxGeometry x="330" y="2700" width="345" height="90" as="geometry" />
        </mxCell>
        <mxCell id="vFeUDvUmldkNWTVdKpO3-179" value="&lt;div style=&quot;color: rgb(212, 212, 212); background-color: rgb(30, 30, 30); font-family: Menlo, Monaco, &amp;quot;Courier New&amp;quot;, monospace; font-weight: normal; line-height: 18px;&quot;&gt;&lt;div style=&quot;line-height: 18px;&quot;&gt;&lt;div style=&quot;line-height: 18px;&quot;&gt;&lt;div style=&quot;line-height: 18px;&quot;&gt;&lt;div style=&quot;line-height: 18px;&quot;&gt;&lt;div style=&quot;line-height: 18px;&quot;&gt;encrypt_text(&lt;span style=&quot;color: #9cdcfe;&quot;&gt;text&lt;/span&gt;)&lt;/div&gt;&lt;/div&gt;&lt;/div&gt;&lt;/div&gt;&lt;/div&gt;&lt;/div&gt;" style="swimlane;whiteSpace=wrap;html=1;" parent="vFeUDvUmldkNWTVdKpO3-14" vertex="1">
          <mxGeometry x="335" y="2830" width="345" height="90" as="geometry" />
        </mxCell>
        <mxCell id="vFeUDvUmldkNWTVdKpO3-142" value="&lt;div style=&quot;color: rgb(212, 212, 212); background-color: rgb(30, 30, 30); font-family: Menlo, Monaco, &amp;quot;Courier New&amp;quot;, monospace; font-weight: normal; line-height: 18px;&quot;&gt;init_db()&lt;/div&gt;" style="swimlane;whiteSpace=wrap;html=1;" parent="vFeUDvUmldkNWTVdKpO3-14" vertex="1">
          <mxGeometry x="345" y="160" width="190" height="220" as="geometry" />
        </mxCell>
        <mxCell id="vFeUDvUmldkNWTVdKpO3-182" style="edgeStyle=orthogonalEdgeStyle;rounded=0;orthogonalLoop=1;jettySize=auto;html=1;exitX=0.5;exitY=1;exitDx=0;exitDy=0;entryX=0.5;entryY=0;entryDx=0;entryDy=0;" parent="vFeUDvUmldkNWTVdKpO3-142" source="vFeUDvUmldkNWTVdKpO3-180" target="vFeUDvUmldkNWTVdKpO3-181" edge="1">
          <mxGeometry relative="1" as="geometry" />
        </mxCell>
        <mxCell id="vFeUDvUmldkNWTVdKpO3-180" value="Connects to DB" style="rounded=1;whiteSpace=wrap;html=1;" parent="vFeUDvUmldkNWTVdKpO3-142" vertex="1">
          <mxGeometry x="35" y="40" width="120" height="40" as="geometry" />
        </mxCell>
        <mxCell id="vFeUDvUmldkNWTVdKpO3-185" style="edgeStyle=orthogonalEdgeStyle;rounded=0;orthogonalLoop=1;jettySize=auto;html=1;exitX=0.5;exitY=1;exitDx=0;exitDy=0;entryX=0.5;entryY=0;entryDx=0;entryDy=0;" parent="vFeUDvUmldkNWTVdKpO3-142" source="vFeUDvUmldkNWTVdKpO3-181" target="vFeUDvUmldkNWTVdKpO3-184" edge="1">
          <mxGeometry relative="1" as="geometry" />
        </mxCell>
        <mxCell id="vFeUDvUmldkNWTVdKpO3-181" value="Prints result of connection" style="rounded=1;whiteSpace=wrap;html=1;" parent="vFeUDvUmldkNWTVdKpO3-142" vertex="1">
          <mxGeometry x="35" y="100" width="120" height="40" as="geometry" />
        </mxCell>
        <mxCell id="vFeUDvUmldkNWTVdKpO3-184" value="Closes connection" style="rounded=1;whiteSpace=wrap;html=1;" parent="vFeUDvUmldkNWTVdKpO3-142" vertex="1">
          <mxGeometry x="35" y="160" width="120" height="40" as="geometry" />
        </mxCell>
        <mxCell id="vFeUDvUmldkNWTVdKpO3-146" value="&lt;div style=&quot;color: rgb(212, 212, 212); background-color: rgb(30, 30, 30); font-family: Menlo, Monaco, &amp;quot;Courier New&amp;quot;, monospace; font-weight: normal; line-height: 18px;&quot;&gt;find_db()&lt;/div&gt;" style="swimlane;whiteSpace=wrap;html=1;" parent="vFeUDvUmldkNWTVdKpO3-14" vertex="1">
          <mxGeometry x="550" y="160" width="215" height="220" as="geometry" />
        </mxCell>
        <mxCell id="vFeUDvUmldkNWTVdKpO3-188" style="edgeStyle=orthogonalEdgeStyle;rounded=0;orthogonalLoop=1;jettySize=auto;html=1;exitX=0.5;exitY=1;exitDx=0;exitDy=0;entryX=0.5;entryY=0;entryDx=0;entryDy=0;" parent="vFeUDvUmldkNWTVdKpO3-146" source="vFeUDvUmldkNWTVdKpO3-183" target="vFeUDvUmldkNWTVdKpO3-186" edge="1">
          <mxGeometry relative="1" as="geometry" />
        </mxCell>
        <mxCell id="vFeUDvUmldkNWTVdKpO3-183" value="Connects to DB" style="rounded=1;whiteSpace=wrap;html=1;" parent="vFeUDvUmldkNWTVdKpO3-146" vertex="1">
          <mxGeometry x="47.5" y="35" width="120" height="40" as="geometry" />
        </mxCell>
        <mxCell id="vFeUDvUmldkNWTVdKpO3-190" style="edgeStyle=orthogonalEdgeStyle;rounded=0;orthogonalLoop=1;jettySize=auto;html=1;exitX=0.5;exitY=1;exitDx=0;exitDy=0;entryX=0.5;entryY=0;entryDx=0;entryDy=0;" parent="vFeUDvUmldkNWTVdKpO3-146" source="vFeUDvUmldkNWTVdKpO3-186" target="vFeUDvUmldkNWTVdKpO3-189" edge="1">
          <mxGeometry relative="1" as="geometry" />
        </mxCell>
        <mxCell id="vFeUDvUmldkNWTVdKpO3-186" value="Finds and returns DB path in filesystem" style="rounded=1;whiteSpace=wrap;html=1;" parent="vFeUDvUmldkNWTVdKpO3-146" vertex="1">
          <mxGeometry x="47.5" y="95" width="120" height="40" as="geometry" />
        </mxCell>
        <mxCell id="vFeUDvUmldkNWTVdKpO3-189" value="Closes connection" style="rounded=1;whiteSpace=wrap;html=1;" parent="vFeUDvUmldkNWTVdKpO3-146" vertex="1">
          <mxGeometry x="47.5" y="155" width="120" height="40" as="geometry" />
        </mxCell>
        <mxCell id="vFeUDvUmldkNWTVdKpO3-147" value="&lt;div style=&quot;color: rgb(212, 212, 212); background-color: rgb(30, 30, 30); font-family: Menlo, Monaco, &amp;quot;Courier New&amp;quot;, monospace; font-weight: normal; line-height: 18px;&quot;&gt;create_db_user_table()&lt;/div&gt;" style="swimlane;whiteSpace=wrap;html=1;" parent="vFeUDvUmldkNWTVdKpO3-14" vertex="1">
          <mxGeometry x="780" y="160" width="170" height="430" as="geometry">
            <mxRectangle x="780" y="160" width="200" height="30" as="alternateBounds" />
          </mxGeometry>
        </mxCell>
        <mxCell id="vFeUDvUmldkNWTVdKpO3-197" style="edgeStyle=orthogonalEdgeStyle;rounded=0;orthogonalLoop=1;jettySize=auto;html=1;exitX=0.5;exitY=1;exitDx=0;exitDy=0;entryX=0.5;entryY=0;entryDx=0;entryDy=0;" parent="vFeUDvUmldkNWTVdKpO3-147" source="vFeUDvUmldkNWTVdKpO3-191" target="vFeUDvUmldkNWTVdKpO3-193" edge="1">
          <mxGeometry relative="1" as="geometry" />
        </mxCell>
        <mxCell id="vFeUDvUmldkNWTVdKpO3-191" value="Connects to DB" style="rounded=1;whiteSpace=wrap;html=1;" parent="vFeUDvUmldkNWTVdKpO3-147" vertex="1">
          <mxGeometry x="25" y="40" width="120" height="40" as="geometry" />
        </mxCell>
        <mxCell id="vFeUDvUmldkNWTVdKpO3-192" value="Closes connection" style="rounded=1;whiteSpace=wrap;html=1;" parent="vFeUDvUmldkNWTVdKpO3-147" vertex="1">
          <mxGeometry x="25" y="365" width="120" height="40" as="geometry" />
        </mxCell>
        <mxCell id="vFeUDvUmldkNWTVdKpO3-198" style="edgeStyle=orthogonalEdgeStyle;rounded=0;orthogonalLoop=1;jettySize=auto;html=1;exitX=0.5;exitY=1;exitDx=0;exitDy=0;entryX=0.5;entryY=0;entryDx=0;entryDy=0;" parent="vFeUDvUmldkNWTVdKpO3-147" source="vFeUDvUmldkNWTVdKpO3-193" target="vFeUDvUmldkNWTVdKpO3-196" edge="1">
          <mxGeometry relative="1" as="geometry" />
        </mxCell>
        <mxCell id="vFeUDvUmldkNWTVdKpO3-193" value="Creates table &quot;users&quot; if not exists" style="rounded=1;whiteSpace=wrap;html=1;" parent="vFeUDvUmldkNWTVdKpO3-147" vertex="1">
          <mxGeometry x="25" y="105" width="120" height="40" as="geometry" />
        </mxCell>
        <mxCell id="vFeUDvUmldkNWTVdKpO3-200" style="edgeStyle=orthogonalEdgeStyle;rounded=0;orthogonalLoop=1;jettySize=auto;html=1;exitX=0.5;exitY=1;exitDx=0;exitDy=0;entryX=0.5;entryY=0;entryDx=0;entryDy=0;" parent="vFeUDvUmldkNWTVdKpO3-147" source="vFeUDvUmldkNWTVdKpO3-196" target="vFeUDvUmldkNWTVdKpO3-199" edge="1">
          <mxGeometry relative="1" as="geometry" />
        </mxCell>
        <mxCell id="vFeUDvUmldkNWTVdKpO3-196" value="users = &lt;br&gt;[id, &lt;br&gt;name, &lt;br&gt;address, &lt;br&gt;current_ip, &lt;br&gt;mac, &lt;br&gt;last_activity, length_of_brush]" style="whiteSpace=wrap;html=1;aspect=fixed;" parent="vFeUDvUmldkNWTVdKpO3-147" vertex="1">
          <mxGeometry x="25" y="165" width="120" height="120" as="geometry" />
        </mxCell>
        <mxCell id="vFeUDvUmldkNWTVdKpO3-201" style="edgeStyle=orthogonalEdgeStyle;rounded=0;orthogonalLoop=1;jettySize=auto;html=1;exitX=0.5;exitY=1;exitDx=0;exitDy=0;entryX=0.5;entryY=0;entryDx=0;entryDy=0;" parent="vFeUDvUmldkNWTVdKpO3-147" source="vFeUDvUmldkNWTVdKpO3-199" target="vFeUDvUmldkNWTVdKpO3-192" edge="1">
          <mxGeometry relative="1" as="geometry" />
        </mxCell>
        <mxCell id="vFeUDvUmldkNWTVdKpO3-199" value="Commits changes" style="rounded=1;whiteSpace=wrap;html=1;" parent="vFeUDvUmldkNWTVdKpO3-147" vertex="1">
          <mxGeometry x="25" y="305" width="120" height="40" as="geometry" />
        </mxCell>
        <mxCell id="vFeUDvUmldkNWTVdKpO3-149" value="&lt;div style=&quot;color: rgb(212, 212, 212); background-color: rgb(30, 30, 30); font-family: Menlo, Monaco, &amp;quot;Courier New&amp;quot;, monospace; font-weight: normal; line-height: 18px;&quot;&gt;add_user(&lt;span style=&quot;color: #9cdcfe;&quot;&gt;name&lt;/span&gt;, &lt;span style=&quot;color: #9cdcfe;&quot;&gt;address&lt;/span&gt;, &lt;span style=&quot;color: #9cdcfe;&quot;&gt;current_ip&lt;/span&gt;, &lt;span style=&quot;color: #9cdcfe;&quot;&gt;mac&lt;/span&gt;, &lt;span style=&quot;color: #9cdcfe;&quot;&gt;last_activity&lt;/span&gt;, &lt;span style=&quot;color: #9cdcfe;&quot;&gt;length_of_brush&lt;/span&gt;)&lt;/div&gt;" style="swimlane;whiteSpace=wrap;html=1;" parent="vFeUDvUmldkNWTVdKpO3-14" vertex="1">
          <mxGeometry x="205" y="400" width="560" height="320" as="geometry" />
        </mxCell>
        <mxCell id="vFeUDvUmldkNWTVdKpO3-217" style="edgeStyle=orthogonalEdgeStyle;rounded=0;orthogonalLoop=1;jettySize=auto;html=1;exitX=0.5;exitY=1;exitDx=0;exitDy=0;entryX=0.5;entryY=0;entryDx=0;entryDy=0;" parent="vFeUDvUmldkNWTVdKpO3-149" source="vFeUDvUmldkNWTVdKpO3-211" target="vFeUDvUmldkNWTVdKpO3-216" edge="1">
          <mxGeometry relative="1" as="geometry" />
        </mxCell>
        <mxCell id="vFeUDvUmldkNWTVdKpO3-211" value="Connects to DB" style="rounded=1;whiteSpace=wrap;html=1;" parent="vFeUDvUmldkNWTVdKpO3-149" vertex="1">
          <mxGeometry x="220" y="40" width="120" height="40" as="geometry" />
        </mxCell>
        <mxCell id="vFeUDvUmldkNWTVdKpO3-212" value="Closes connection" style="rounded=1;whiteSpace=wrap;html=1;" parent="vFeUDvUmldkNWTVdKpO3-149" vertex="1">
          <mxGeometry x="220" y="260" width="120" height="40" as="geometry" />
        </mxCell>
        <mxCell id="vFeUDvUmldkNWTVdKpO3-219" style="edgeStyle=orthogonalEdgeStyle;rounded=0;orthogonalLoop=1;jettySize=auto;html=1;exitX=0.5;exitY=1;exitDx=0;exitDy=0;entryX=0.5;entryY=0;entryDx=0;entryDy=0;" parent="vFeUDvUmldkNWTVdKpO3-149" source="vFeUDvUmldkNWTVdKpO3-213" target="vFeUDvUmldkNWTVdKpO3-212" edge="1">
          <mxGeometry relative="1" as="geometry" />
        </mxCell>
        <mxCell id="vFeUDvUmldkNWTVdKpO3-213" value="Commits changes" style="rounded=1;whiteSpace=wrap;html=1;" parent="vFeUDvUmldkNWTVdKpO3-149" vertex="1">
          <mxGeometry x="220" y="200" width="120" height="40" as="geometry" />
        </mxCell>
        <mxCell id="vFeUDvUmldkNWTVdKpO3-218" style="edgeStyle=orthogonalEdgeStyle;rounded=0;orthogonalLoop=1;jettySize=auto;html=1;exitX=0.5;exitY=1;exitDx=0;exitDy=0;entryX=0.5;entryY=0;entryDx=0;entryDy=0;" parent="vFeUDvUmldkNWTVdKpO3-149" source="vFeUDvUmldkNWTVdKpO3-216" target="vFeUDvUmldkNWTVdKpO3-213" edge="1">
          <mxGeometry relative="1" as="geometry" />
        </mxCell>
        <mxCell id="vFeUDvUmldkNWTVdKpO3-216" value="Creates a new user with given arguments" style="rounded=1;whiteSpace=wrap;html=1;" parent="vFeUDvUmldkNWTVdKpO3-149" vertex="1">
          <mxGeometry x="220" y="110" width="120" height="60" as="geometry" />
        </mxCell>
        <mxCell id="vFeUDvUmldkNWTVdKpO3-153" value="&lt;div style=&quot;color: rgb(212, 212, 212); background-color: rgb(30, 30, 30); font-family: Menlo, Monaco, &amp;quot;Courier New&amp;quot;, monospace; font-weight: normal; line-height: 18px;&quot;&gt;&lt;div style=&quot;line-height: 18px;&quot;&gt;save_otp(&lt;span style=&quot;color: #9cdcfe;&quot;&gt;msg&lt;/span&gt;, &lt;span style=&quot;color: #9cdcfe;&quot;&gt;username&lt;/span&gt;)&lt;/div&gt;&lt;/div&gt;" style="swimlane;whiteSpace=wrap;html=1;" parent="vFeUDvUmldkNWTVdKpO3-14" vertex="1">
          <mxGeometry x="780" y="600" width="190" height="380" as="geometry" />
        </mxCell>
        <mxCell id="wHaB5puJgnIelVB_-INw-5" style="edgeStyle=orthogonalEdgeStyle;rounded=0;orthogonalLoop=1;jettySize=auto;html=1;exitX=0.5;exitY=1;exitDx=0;exitDy=0;entryX=0.5;entryY=0;entryDx=0;entryDy=0;" edge="1" parent="vFeUDvUmldkNWTVdKpO3-153" source="wHaB5puJgnIelVB_-INw-1" target="wHaB5puJgnIelVB_-INw-4">
          <mxGeometry relative="1" as="geometry" />
        </mxCell>
        <mxCell id="wHaB5puJgnIelVB_-INw-1" value="Connects to DB" style="rounded=1;whiteSpace=wrap;html=1;" vertex="1" parent="vFeUDvUmldkNWTVdKpO3-153">
          <mxGeometry x="35" y="40" width="120" height="40" as="geometry" />
        </mxCell>
        <mxCell id="wHaB5puJgnIelVB_-INw-2" value="Closes connection" style="rounded=1;whiteSpace=wrap;html=1;" vertex="1" parent="vFeUDvUmldkNWTVdKpO3-153">
          <mxGeometry x="35" y="260" width="120" height="40" as="geometry" />
        </mxCell>
        <mxCell id="wHaB5puJgnIelVB_-INw-7" style="edgeStyle=orthogonalEdgeStyle;rounded=0;orthogonalLoop=1;jettySize=auto;html=1;exitX=0.5;exitY=1;exitDx=0;exitDy=0;entryX=0.5;entryY=0;entryDx=0;entryDy=0;" edge="1" parent="vFeUDvUmldkNWTVdKpO3-153" source="wHaB5puJgnIelVB_-INw-3" target="wHaB5puJgnIelVB_-INw-2">
          <mxGeometry relative="1" as="geometry" />
        </mxCell>
        <mxCell id="wHaB5puJgnIelVB_-INw-3" value="Commits changes" style="rounded=1;whiteSpace=wrap;html=1;" vertex="1" parent="vFeUDvUmldkNWTVdKpO3-153">
          <mxGeometry x="35" y="200" width="120" height="40" as="geometry" />
        </mxCell>
        <mxCell id="wHaB5puJgnIelVB_-INw-6" style="edgeStyle=orthogonalEdgeStyle;rounded=0;orthogonalLoop=1;jettySize=auto;html=1;exitX=0.5;exitY=1;exitDx=0;exitDy=0;entryX=0.5;entryY=0;entryDx=0;entryDy=0;" edge="1" parent="vFeUDvUmldkNWTVdKpO3-153" source="wHaB5puJgnIelVB_-INw-4" target="wHaB5puJgnIelVB_-INw-3">
          <mxGeometry relative="1" as="geometry" />
        </mxCell>
        <mxCell id="wHaB5puJgnIelVB_-INw-4" value="Adds a new row to the OTP table and inserts the key along with the attached user and the expiry time" style="rounded=1;whiteSpace=wrap;html=1;" vertex="1" parent="vFeUDvUmldkNWTVdKpO3-153">
          <mxGeometry x="35" y="100" width="120" height="80" as="geometry" />
        </mxCell>
        <mxCell id="vFeUDvUmldkNWTVdKpO3-169" value="&lt;div style=&quot;color: rgb(212, 212, 212); background-color: rgb(30, 30, 30); font-family: Menlo, Monaco, &amp;quot;Courier New&amp;quot;, monospace; font-weight: normal; line-height: 18px;&quot;&gt;&lt;div style=&quot;line-height: 18px;&quot;&gt;&lt;div style=&quot;line-height: 18px;&quot;&gt;otp_check(&lt;span style=&quot;color: #9cdcfe;&quot;&gt;number&lt;/span&gt;, &lt;span style=&quot;color: #9cdcfe;&quot;&gt;username&lt;/span&gt;)&lt;/div&gt;&lt;/div&gt;&lt;/div&gt;" style="swimlane;whiteSpace=wrap;html=1;" parent="vFeUDvUmldkNWTVdKpO3-14" vertex="1">
          <mxGeometry x="980" y="600" width="220" height="380" as="geometry" />
        </mxCell>
        <mxCell id="wHaB5puJgnIelVB_-INw-13" style="edgeStyle=orthogonalEdgeStyle;rounded=0;orthogonalLoop=1;jettySize=auto;html=1;exitX=0.5;exitY=1;exitDx=0;exitDy=0;entryX=0.5;entryY=0;entryDx=0;entryDy=0;" edge="1" parent="vFeUDvUmldkNWTVdKpO3-169" source="wHaB5puJgnIelVB_-INw-8" target="wHaB5puJgnIelVB_-INw-11">
          <mxGeometry relative="1" as="geometry" />
        </mxCell>
        <mxCell id="wHaB5puJgnIelVB_-INw-8" value="Connects to DB" style="rounded=1;whiteSpace=wrap;html=1;" vertex="1" parent="vFeUDvUmldkNWTVdKpO3-169">
          <mxGeometry x="50" y="40" width="120" height="40" as="geometry" />
        </mxCell>
        <mxCell id="wHaB5puJgnIelVB_-INw-9" value="Returns result" style="rounded=1;whiteSpace=wrap;html=1;" vertex="1" parent="vFeUDvUmldkNWTVdKpO3-169">
          <mxGeometry x="53.75" y="320" width="120" height="40" as="geometry" />
        </mxCell>
        <mxCell id="wHaB5puJgnIelVB_-INw-15" style="edgeStyle=orthogonalEdgeStyle;rounded=0;orthogonalLoop=1;jettySize=auto;html=1;exitX=0.5;exitY=1;exitDx=0;exitDy=0;entryX=0.5;entryY=0;entryDx=0;entryDy=0;" edge="1" parent="vFeUDvUmldkNWTVdKpO3-169" source="wHaB5puJgnIelVB_-INw-10" target="wHaB5puJgnIelVB_-INw-9">
          <mxGeometry relative="1" as="geometry" />
        </mxCell>
        <mxCell id="wHaB5puJgnIelVB_-INw-10" value="Checks if the input is the same as the key and checks if the same user is attached to it" style="rounded=1;whiteSpace=wrap;html=1;" vertex="1" parent="vFeUDvUmldkNWTVdKpO3-169">
          <mxGeometry x="46.25" y="200" width="127.5" height="90" as="geometry" />
        </mxCell>
        <mxCell id="wHaB5puJgnIelVB_-INw-14" style="edgeStyle=orthogonalEdgeStyle;rounded=0;orthogonalLoop=1;jettySize=auto;html=1;exitX=0.5;exitY=1;exitDx=0;exitDy=0;entryX=0.5;entryY=0;entryDx=0;entryDy=0;" edge="1" parent="vFeUDvUmldkNWTVdKpO3-169" source="wHaB5puJgnIelVB_-INw-11" target="wHaB5puJgnIelVB_-INw-10">
          <mxGeometry relative="1" as="geometry" />
        </mxCell>
        <mxCell id="wHaB5puJgnIelVB_-INw-11" value="Gets the key, username and expiry date from the row that corresponds to the user trying to login" style="rounded=1;whiteSpace=wrap;html=1;" vertex="1" parent="vFeUDvUmldkNWTVdKpO3-169">
          <mxGeometry x="50" y="100" width="120" height="80" as="geometry" />
        </mxCell>
        <mxCell id="wHaB5puJgnIelVB_-INw-90" value="&lt;div style=&quot;color: rgb(212, 212, 212); background-color: rgb(30, 30, 30); font-family: Menlo, Monaco, &amp;quot;Courier New&amp;quot;, monospace; font-weight: normal; line-height: 18px;&quot;&gt;&lt;div style=&quot;line-height: 18px;&quot;&gt;&lt;div style=&quot;line-height: 18px;&quot;&gt;&lt;div style=&quot;line-height: 18px;&quot;&gt;&lt;div style=&quot;line-height: 18px;&quot;&gt;&lt;div style=&quot;line-height: 18px;&quot;&gt;&lt;div style=&quot;line-height: 18px;&quot;&gt;decrypt_text(&lt;span style=&quot;color: #9cdcfe;&quot;&gt;text&lt;/span&gt;)&lt;/div&gt;&lt;/div&gt;&lt;/div&gt;&lt;/div&gt;&lt;/div&gt;&lt;/div&gt;&lt;/div&gt;" style="swimlane;whiteSpace=wrap;html=1;" vertex="1" parent="vFeUDvUmldkNWTVdKpO3-14">
          <mxGeometry x="740" y="2820" width="345" height="90" as="geometry" />
        </mxCell>
        <mxCell id="wHaB5puJgnIelVB_-INw-91" value="&lt;div style=&quot;color: rgb(212, 212, 212); background-color: rgb(30, 30, 30); font-family: Menlo, Monaco, &amp;quot;Courier New&amp;quot;, monospace; font-weight: normal; line-height: 18px;&quot;&gt;&lt;div style=&quot;line-height: 18px;&quot;&gt;&lt;div style=&quot;line-height: 18px;&quot;&gt;&lt;div style=&quot;line-height: 18px;&quot;&gt;&lt;div style=&quot;line-height: 18px;&quot;&gt;&lt;div style=&quot;line-height: 18px;&quot;&gt;&lt;div style=&quot;line-height: 18px;&quot;&gt;generate_key()&lt;/div&gt;&lt;/div&gt;&lt;/div&gt;&lt;/div&gt;&lt;/div&gt;&lt;/div&gt;&lt;/div&gt;" style="swimlane;whiteSpace=wrap;html=1;" vertex="1" parent="vFeUDvUmldkNWTVdKpO3-14">
          <mxGeometry x="625" y="2930" width="345" height="90" as="geometry" />
        </mxCell>
        <mxCell id="vFeUDvUmldkNWTVdKpO3-152" value="&lt;div style=&quot;color: rgb(212, 212, 212); background-color: rgb(30, 30, 30); font-family: Menlo, Monaco, &amp;quot;Courier New&amp;quot;, monospace; font-weight: normal; line-height: 18px;&quot;&gt;&lt;div style=&quot;line-height: 18px;&quot;&gt;&lt;div style=&quot;line-height: 18px;&quot;&gt;create_db_otp()&lt;/div&gt;&lt;/div&gt;&lt;/div&gt;" style="swimlane;whiteSpace=wrap;html=1;" parent="1" vertex="1">
          <mxGeometry x="2950" y="1120" width="800" height="560" as="geometry" />
        </mxCell>
        <mxCell id="pihUJhh62bkbbftnwkZr-1" style="edgeStyle=orthogonalEdgeStyle;rounded=0;orthogonalLoop=1;jettySize=auto;html=1;exitX=0.5;exitY=1;exitDx=0;exitDy=0;entryX=0.5;entryY=0;entryDx=0;entryDy=0;" parent="vFeUDvUmldkNWTVdKpO3-152" source="vFeUDvUmldkNWTVdKpO3-227" target="vFeUDvUmldkNWTVdKpO3-231" edge="1">
          <mxGeometry relative="1" as="geometry" />
        </mxCell>
        <mxCell id="vFeUDvUmldkNWTVdKpO3-227" value="Connects to DB" style="rounded=1;whiteSpace=wrap;html=1;" parent="vFeUDvUmldkNWTVdKpO3-152" vertex="1">
          <mxGeometry x="110" y="60" width="120" height="40" as="geometry" />
        </mxCell>
        <mxCell id="vFeUDvUmldkNWTVdKpO3-228" value="Closes connection" style="rounded=1;whiteSpace=wrap;html=1;" parent="vFeUDvUmldkNWTVdKpO3-152" vertex="1">
          <mxGeometry x="110" y="350" width="120" height="40" as="geometry" />
        </mxCell>
        <mxCell id="pihUJhh62bkbbftnwkZr-4" style="edgeStyle=orthogonalEdgeStyle;rounded=0;orthogonalLoop=1;jettySize=auto;html=1;exitX=0.5;exitY=1;exitDx=0;exitDy=0;entryX=0.5;entryY=0;entryDx=0;entryDy=0;" parent="vFeUDvUmldkNWTVdKpO3-152" source="vFeUDvUmldkNWTVdKpO3-229" target="vFeUDvUmldkNWTVdKpO3-228" edge="1">
          <mxGeometry relative="1" as="geometry" />
        </mxCell>
        <mxCell id="vFeUDvUmldkNWTVdKpO3-229" value="Commits changes" style="rounded=1;whiteSpace=wrap;html=1;" parent="vFeUDvUmldkNWTVdKpO3-152" vertex="1">
          <mxGeometry x="110" y="290" width="120" height="40" as="geometry" />
        </mxCell>
        <mxCell id="pihUJhh62bkbbftnwkZr-2" style="edgeStyle=orthogonalEdgeStyle;rounded=0;orthogonalLoop=1;jettySize=auto;html=1;exitX=0.5;exitY=1;exitDx=0;exitDy=0;entryX=0.5;entryY=0;entryDx=0;entryDy=0;" parent="vFeUDvUmldkNWTVdKpO3-152" source="vFeUDvUmldkNWTVdKpO3-231" target="vFeUDvUmldkNWTVdKpO3-232" edge="1">
          <mxGeometry relative="1" as="geometry" />
        </mxCell>
        <mxCell id="vFeUDvUmldkNWTVdKpO3-231" value="Creates table &quot;otp&quot; if not exists" style="rounded=1;whiteSpace=wrap;html=1;" parent="vFeUDvUmldkNWTVdKpO3-152" vertex="1">
          <mxGeometry x="110" y="120" width="120" height="40" as="geometry" />
        </mxCell>
        <mxCell id="pihUJhh62bkbbftnwkZr-3" style="edgeStyle=orthogonalEdgeStyle;rounded=0;orthogonalLoop=1;jettySize=auto;html=1;exitX=0.5;exitY=1;exitDx=0;exitDy=0;entryX=0.5;entryY=0;entryDx=0;entryDy=0;" parent="vFeUDvUmldkNWTVdKpO3-152" source="vFeUDvUmldkNWTVdKpO3-232" target="vFeUDvUmldkNWTVdKpO3-229" edge="1">
          <mxGeometry relative="1" as="geometry" />
        </mxCell>
        <mxCell id="vFeUDvUmldkNWTVdKpO3-232" value="otp = &lt;br&gt;[key,&lt;br&gt;user,&lt;br&gt;expire]" style="whiteSpace=wrap;html=1;aspect=fixed;" parent="vFeUDvUmldkNWTVdKpO3-152" vertex="1">
          <mxGeometry x="127.5" y="175" width="85" height="85" as="geometry" />
        </mxCell>
      </root>
    </mxGraphModel>
  </diagram>
</mxfile>
